<svg width="396" height="78" viewBox="0 0 396 78" fill="none" xmlns="http://www.w3.org/2000/svg">
<path d="M24.52 32.24C28.276 32.24 30.304 30.344 31.288 27.848L29.476 27.032C28.756 29.072 27.268 30.5 24.52 30.5C21.016 30.5 19 28.028 19 23.768C19 19.508 21.016 17.036 24.52 17.036C27.268 17.036 28.756 18.464 29.476 20.504L31.288 19.688C30.304 17.192 28.276 15.296 24.52 15.296C19.804 15.296 16.924 18.512 16.924 23.768C16.924 29.024 19.804 32.24 24.52 32.24ZM33.8723 32H35.5043V15.08C35.5043 14.9 35.4083 14.792 35.2163 14.792H33.5843V31.712C33.5843 31.892 33.6923 32 33.8723 32ZM39.0218 32H40.9418V20.528C40.9418 20.312 40.8698 20.24 40.6538 20.24H39.0218V32ZM38.6978 16.088C38.6978 16.832 39.2378 17.396 39.9818 17.396C40.7258 17.396 41.2658 16.832 41.2658 16.088C41.2658 15.356 40.7258 14.792 39.9818 14.792C39.2378 14.792 38.6978 15.356 38.6978 16.088ZM53.2073 30.536V36.848H55.1273V20.24H53.5313C53.3153 20.24 53.2433 20.312 53.2433 20.528V21.752C53.2433 21.944 53.1713 22.004 53.0753 22.004C52.9913 22.004 52.9193 21.956 52.7993 21.788C52.2713 21.128 51.2033 20.024 49.0433 20.024C45.9353 20.024 43.7153 22.22 43.7153 26.12C43.7153 30.164 46.0073 32.216 48.9353 32.216C51.1193 32.216 52.2113 31.16 52.7513 30.5C52.8833 30.332 52.9553 30.284 53.0393 30.284C53.1353 30.284 53.2073 30.344 53.2073 30.536ZM45.7073 26.12C45.7073 23.456 47.0393 21.704 49.4873 21.704C51.9233 21.704 53.2553 23.456 53.2553 26.12C53.2553 28.784 51.9233 30.536 49.4873 30.536C47.0393 30.536 45.7073 28.784 45.7073 26.12ZM62.8024 32.24C65.1544 32.24 66.2104 30.92 66.5104 30.476C66.6184 30.296 66.7024 30.236 66.7984 30.236C66.8944 30.236 66.9664 30.296 66.9664 30.488V31.712C66.9664 31.928 67.0384 32 67.2544 32H68.8504V20.24H66.9304V26.288C66.9304 28.7 66.0424 30.464 63.4264 30.464C61.2904 30.464 60.4624 29.168 60.4624 26.768V20.24H58.5424V27.212C58.5424 30.548 60.0304 32.24 62.8024 32.24ZM77.3774 32.24C79.7054 32.24 81.2294 31.304 82.1414 30.272L80.7494 29.12C80.1014 29.876 79.0214 30.56 77.4374 30.56C75.2174 30.56 73.8254 29.252 73.6454 26.696H82.7054C82.7294 26.468 82.7414 26.216 82.7414 25.988C82.7414 22.592 81.0614 20 77.4374 20C74.0294 20 71.6294 22.232 71.6294 26.12C71.6294 30.08 73.9214 32.24 77.3774 32.24ZM73.6694 25.208C73.9334 23.06 75.1454 21.68 77.3894 21.68C79.8854 21.68 80.7254 23.564 80.7254 24.956C80.7254 25.16 80.6654 25.208 80.4734 25.208H73.6694ZM91.7562 32H93.6762V25.952C93.6762 23.54 94.5762 21.776 97.2162 21.776C99.4122 21.776 100.264 23.084 100.264 25.52V32H102.184V25.124C102.184 21.764 100.66 20 97.8402 20C95.4642 20 94.3962 21.32 94.0962 21.764C93.9882 21.944 93.8922 22.004 93.8082 22.004C93.7002 22.004 93.6402 21.944 93.6402 21.752V20.528C93.6402 20.312 93.5682 20.24 93.3522 20.24H91.7562V32ZM110.576 32.24C114.128 32.24 116.324 29.744 116.324 26.12C116.324 22.496 114.128 20 110.576 20C107.024 20 104.84 22.496 104.84 26.12C104.84 29.744 107.024 32.24 110.576 32.24ZM106.832 26.12C106.832 23.456 108.152 21.68 110.576 21.68C113.012 21.68 114.332 23.456 114.332 26.12C114.332 28.784 113.012 30.56 110.576 30.56C108.152 30.56 106.832 28.784 106.832 26.12ZM122.72 32.24C125.84 32.24 127.136 30.788 127.136 28.82C127.136 26.384 125.18 25.7 123.224 25.136C121.652 24.692 120.548 24.356 120.548 23.192C120.548 22.34 121.172 21.68 122.888 21.68C124.04 21.68 125.048 21.992 125.756 22.58L126.8 21.08C125.888 20.396 124.592 20 122.972 20C119.96 20 118.616 21.404 118.616 23.336C118.616 25.628 120.572 26.348 122.516 26.888C124.076 27.332 125.18 27.716 125.18 28.928C125.18 29.876 124.484 30.56 122.768 30.56C121.4 30.56 120.308 30.128 119.42 29.3L118.196 30.728C119.144 31.556 120.584 32.24 122.72 32.24ZM141.28 32.24C143.38 32.24 144.808 31.412 145.756 30.14L144.328 28.952C143.644 29.96 142.696 30.56 141.244 30.56C138.952 30.56 137.512 28.976 137.512 26.12C137.512 23.264 138.952 21.68 141.244 21.68C142.696 21.68 143.644 22.28 144.328 23.288L145.756 22.1C144.808 20.828 143.38 20 141.28 20C137.704 20 135.52 22.376 135.52 26.12C135.52 29.864 137.704 32.24 141.28 32.24ZM153.092 32.24C156.644 32.24 158.84 29.744 158.84 26.12C158.84 22.496 156.644 20 153.092 20C149.54 20 147.356 22.496 147.356 26.12C147.356 29.744 149.54 32.24 153.092 32.24ZM149.348 26.12C149.348 23.456 150.668 21.68 153.092 21.68C155.528 21.68 156.848 23.456 156.848 26.12C156.848 28.784 155.528 30.56 153.092 30.56C150.668 30.56 149.348 28.784 149.348 26.12ZM161.623 32H163.543V25.952C163.543 23.54 164.443 21.776 167.083 21.776C169.279 21.776 170.131 23.084 170.131 25.52V32H172.051V25.124C172.051 21.764 170.527 20 167.707 20C165.331 20 164.263 21.32 163.963 21.764C163.855 21.944 163.759 22.004 163.675 22.004C163.567 22.004 163.507 21.944 163.507 21.752V20.528C163.507 20.312 163.435 20.24 163.219 20.24H161.623V32ZM180.467 32.24C182.568 32.24 183.996 31.412 184.944 30.14L183.516 28.952C182.832 29.96 181.884 30.56 180.432 30.56C178.14 30.56 176.7 28.976 176.7 26.12C176.7 23.264 178.14 21.68 180.432 21.68C181.884 21.68 182.832 22.28 183.516 23.288L184.944 22.1C183.996 20.828 182.568 20 180.467 20C176.892 20 174.708 22.376 174.708 26.12C174.708 29.864 176.892 32.24 180.467 32.24ZM192.291 32.24C194.619 32.24 196.143 31.304 197.055 30.272L195.663 29.12C195.015 29.876 193.935 30.56 192.351 30.56C190.131 30.56 188.739 29.252 188.559 26.696H197.619C197.643 26.468 197.655 26.216 197.655 25.988C197.655 22.592 195.975 20 192.351 20C188.943 20 186.543 22.232 186.543 26.12C186.543 30.08 188.835 32.24 192.291 32.24ZM188.583 25.208C188.847 23.06 190.059 21.68 192.303 21.68C194.799 21.68 195.639 23.564 195.639 24.956C195.639 25.16 195.579 25.208 195.387 25.208H188.583ZM200.436 32H202.356V20.528C202.356 20.312 202.284 20.24 202.068 20.24H200.436V32ZM200.112 16.088C200.112 16.832 200.652 17.396 201.396 17.396C202.14 17.396 202.68 16.832 202.68 16.088C202.68 15.356 202.14 14.792 201.396 14.792C200.652 14.792 200.112 15.356 200.112 16.088ZM209.965 32.24C211.021 32.24 211.897 31.976 212.461 31.616L211.729 30.044C211.261 30.332 210.745 30.5 210.121 30.5C208.933 30.5 208.489 29.996 208.489 28.724V22.244C208.489 22.028 208.561 21.956 208.777 21.956H211.549C211.765 21.956 211.849 21.884 211.849 21.668V20.24H208.489V17.168C208.489 16.952 208.417 16.868 208.201 16.868H206.569V19.952C206.569 20.168 206.497 20.24 206.281 20.24H204.349V21.956H206.569V29.012C206.569 31.328 207.733 32.24 209.965 32.24ZM219.115 32.24C222.667 32.24 224.863 29.744 224.863 26.12C224.863 22.496 222.667 20 219.115 20C215.563 20 213.379 22.496 213.379 26.12C213.379 29.744 215.563 32.24 219.115 32.24ZM215.371 26.12C215.371 23.456 216.691 21.68 219.115 21.68C221.551 21.68 222.871 23.456 222.871 26.12C222.871 28.784 221.551 30.56 219.115 30.56C216.691 30.56 215.371 28.784 215.371 26.12ZM231.259 32.24C234.379 32.24 235.675 30.788 235.675 28.82C235.675 26.384 233.719 25.7 231.763 25.136C230.191 24.692 229.087 24.356 229.087 23.192C229.087 22.34 229.711 21.68 231.427 21.68C232.579 21.68 233.587 21.992 234.295 22.58L235.339 21.08C234.427 20.396 233.131 20 231.511 20C228.499 20 227.155 21.404 227.155 23.336C227.155 25.628 229.111 26.348 231.055 26.888C232.615 27.332 233.719 27.716 233.719 28.928C233.719 29.876 233.023 30.56 231.307 30.56C229.939 30.56 228.847 30.128 227.959 29.3L226.735 30.728C227.683 31.556 229.123 32.24 231.259 32.24ZM244.803 36.848H246.723V30.536C246.723 30.344 246.795 30.284 246.891 30.284C246.975 30.284 247.047 30.332 247.179 30.5C247.719 31.16 248.811 32.216 250.995 32.216C253.923 32.216 256.215 30.164 256.215 26.12C256.215 22.052 253.947 20.024 251.067 20.024C248.823 20.024 247.659 21.128 247.131 21.788C247.011 21.956 246.939 22.004 246.855 22.004C246.747 22.004 246.687 21.944 246.687 21.752V20.528C246.687 20.312 246.615 20.24 246.399 20.24H244.803V36.848ZM246.675 26.12C246.675 23.456 248.007 21.704 250.443 21.704C252.891 21.704 254.223 23.456 254.223 26.12C254.223 28.784 252.891 30.536 250.443 30.536C248.007 30.536 246.675 28.784 246.675 26.12ZM261.922 32.24C263.578 32.24 264.802 31.712 265.606 30.524C265.726 30.356 265.81 30.284 265.906 30.284C266.002 30.284 266.074 30.344 266.074 30.536V31.712C266.074 31.928 266.146 32 266.362 32H267.958V24.152C267.958 21.716 266.686 20 263.602 20C261.334 20 259.786 20.732 258.598 21.92L259.846 23.24C260.782 22.256 261.922 21.74 263.47 21.74C265.138 21.74 266.038 22.532 266.038 24.356V24.884L262.582 25.364C259.366 25.808 258.214 27.152 258.214 28.976C258.214 30.932 259.666 32.24 261.922 32.24ZM260.206 28.748C260.206 27.728 260.866 26.996 262.726 26.732L265.666 26.312C265.966 26.276 266.038 26.36 266.038 26.648V27.5C266.038 29.504 264.622 30.572 262.606 30.572C260.914 30.572 260.206 29.792 260.206 28.748ZM271.358 32H273.278V25.676C273.278 23.252 274.43 21.98 276.986 21.98H277.502V20H277.13C275.198 20 274.274 20.852 273.686 21.872C273.59 22.052 273.494 22.1 273.41 22.1C273.302 22.1 273.242 22.052 273.242 21.86V20.528C273.242 20.312 273.17 20.24 272.954 20.24H271.358V32ZM282.407 32.24C284.063 32.24 285.287 31.712 286.091 30.524C286.211 30.356 286.295 30.284 286.391 30.284C286.487 30.284 286.559 30.344 286.559 30.536V31.712C286.559 31.928 286.631 32 286.847 32H288.443V24.152C288.443 21.716 287.171 20 284.087 20C281.819 20 280.271 20.732 279.083 21.92L280.331 23.24C281.267 22.256 282.407 21.74 283.955 21.74C285.623 21.74 286.523 22.532 286.523 24.356V24.884L283.067 25.364C279.851 25.808 278.699 27.152 278.699 28.976C278.699 30.932 280.151 32.24 282.407 32.24ZM280.691 28.748C280.691 27.728 281.351 26.996 283.211 26.732L286.151 26.312C286.451 26.276 286.523 26.36 286.523 26.648V27.5C286.523 29.504 285.107 30.572 283.091 30.572C281.399 30.572 280.691 29.792 280.691 28.748ZM22.768 63.24C25.096 63.24 26.62 62.304 27.532 61.272L26.14 60.12C25.492 60.876 24.412 61.56 22.828 61.56C20.608 61.56 19.216 60.252 19.036 57.696H28.096C28.12 57.468 28.132 57.216 28.132 56.988C28.132 53.592 26.452 51 22.828 51C19.42 51 17.02 53.232 17.02 57.12C17.02 61.08 19.312 63.24 22.768 63.24ZM19.06 56.208C19.324 54.06 20.536 52.68 22.78 52.68C25.276 52.68 26.116 54.564 26.116 55.956C26.116 56.16 26.056 56.208 25.864 56.208H19.06ZM29.1524 63H31.4924L32.6444 61.272C33.3884 60.156 33.9524 59.28 34.6364 58.2C35.3444 59.28 35.9324 60.168 36.6884 61.272L37.8764 63H40.3004L36.0764 57.036L40.1924 51.24H38.2364C37.9964 51.24 37.8764 51.288 37.7564 51.504L36.8444 52.872C36.1484 53.94 35.6324 54.732 35.1884 55.464C35.0804 55.668 34.9724 55.764 34.8164 55.764C34.6724 55.764 34.5884 55.668 34.4564 55.464C33.9644 54.636 33.4364 53.832 32.7884 52.86L31.6964 51.24H29.2964L33.3764 57.024L29.1524 63ZM42.2327 67.848H44.1528V61.536C44.1528 61.344 44.2248 61.284 44.3208 61.284C44.4048 61.284 44.4768 61.332 44.6088 61.5C45.1488 62.16 46.2408 63.216 48.4248 63.216C51.3528 63.216 53.6448 61.164 53.6448 57.12C53.6448 53.052 51.3768 51.024 48.4968 51.024C46.2528 51.024 45.0888 52.128 44.5608 52.788C44.4408 52.956 44.3688 53.004 44.2848 53.004C44.1768 53.004 44.1168 52.944 44.1168 52.752V51.528C44.1168 51.312 44.0448 51.24 43.8288 51.24H42.2327V67.848ZM44.1048 57.12C44.1048 54.456 45.4368 52.704 47.8728 52.704C50.3208 52.704 51.6528 54.456 51.6528 57.12C51.6528 59.784 50.3208 61.536 47.8728 61.536C45.4368 61.536 44.1048 59.784 44.1048 57.12ZM59.3519 63.24C61.0079 63.24 62.2319 62.712 63.0359 61.524C63.1559 61.356 63.2399 61.284 63.3359 61.284C63.4319 61.284 63.5039 61.344 63.5039 61.536V62.712C63.5039 62.928 63.5759 63 63.7919 63H65.3879V55.152C65.3879 52.716 64.1159 51 61.0319 51C58.7639 51 57.2159 51.732 56.0279 52.92L57.2759 54.24C58.2119 53.256 59.3519 52.74 60.8999 52.74C62.5679 52.74 63.4679 53.532 63.4679 55.356V55.884L60.0119 56.364C56.7959 56.808 55.6439 58.152 55.6439 59.976C55.6439 61.932 57.0959 63.24 59.3519 63.24ZM57.6359 59.748C57.6359 58.728 58.2959 57.996 60.1559 57.732L63.0959 57.312C63.3959 57.276 63.4679 57.36 63.4679 57.648V58.5C63.4679 60.504 62.0519 61.572 60.0359 61.572C58.3439 61.572 57.6359 60.792 57.6359 59.748ZM68.7874 63H70.7074V56.952C70.7074 54.54 71.6074 52.776 74.2474 52.776C76.4434 52.776 77.2954 54.084 77.2954 56.52V63H79.2154V56.124C79.2154 52.764 77.6914 51 74.8714 51C72.4954 51 71.4274 52.32 71.1274 52.764C71.0194 52.944 70.9234 53.004 70.8394 53.004C70.7314 53.004 70.6714 52.944 70.6714 52.752V51.528C70.6714 51.312 70.5994 51.24 70.3834 51.24H68.7874V63ZM87.0916 63.216C89.1676 63.216 90.3076 62.232 90.9556 61.452C91.0876 61.284 91.1476 61.236 91.2316 61.236C91.3276 61.236 91.3996 61.296 91.3996 61.488V62.712C91.3996 62.928 91.4716 63 91.6876 63H93.2836V45.792H91.6516C91.4356 45.792 91.3636 45.864 91.3636 46.08V52.704C91.3636 52.896 91.2916 52.956 91.1956 52.956C91.1116 52.956 91.0396 52.908 90.9076 52.74C90.3916 52.068 89.3596 51.024 87.1996 51.024C84.0916 51.024 81.8716 53.22 81.8716 57.12C81.8716 61.164 84.1996 63.216 87.0916 63.216ZM83.8636 57.12C83.8636 54.456 85.1956 52.704 87.6436 52.704C90.0796 52.704 91.4116 54.456 91.4116 57.12C91.4116 59.784 90.0796 61.536 87.6436 61.536C85.1956 61.536 83.8636 59.784 83.8636 57.12ZM96.8187 63H98.7387V51.528C98.7387 51.312 98.6667 51.24 98.4507 51.24H96.8187V63ZM96.4947 47.088C96.4947 47.832 97.0347 48.396 97.7787 48.396C98.5227 48.396 99.0627 47.832 99.0627 47.088C99.0627 46.356 98.5227 45.792 97.7787 45.792C97.0347 45.792 96.4947 46.356 96.4947 47.088ZM102.256 63H104.176V56.676C104.176 54.252 105.328 52.98 107.884 52.98H108.4V51H108.028C106.096 51 105.172 51.852 104.584 52.872C104.488 53.052 104.392 53.1 104.308 53.1C104.2 53.1 104.14 53.052 104.14 52.86V51.528C104.14 51.312 104.068 51.24 103.852 51.24H102.256V63ZM120.032 63.24C121.688 63.24 122.912 62.712 123.716 61.524C123.836 61.356 123.92 61.284 124.016 61.284C124.112 61.284 124.184 61.344 124.184 61.536V62.712C124.184 62.928 124.256 63 124.472 63H126.068V55.152C126.068 52.716 124.796 51 121.712 51C119.444 51 117.896 51.732 116.708 52.92L117.956 54.24C118.892 53.256 120.032 52.74 121.58 52.74C123.248 52.74 124.148 53.532 124.148 55.356V55.884L120.692 56.364C117.476 56.808 116.324 58.152 116.324 59.976C116.324 61.932 117.776 63.24 120.032 63.24ZM118.316 59.748C118.316 58.728 118.976 57.996 120.836 57.732L123.776 57.312C124.076 57.276 124.148 57.36 124.148 57.648V58.5C124.148 60.504 122.732 61.572 120.716 61.572C119.024 61.572 118.316 60.792 118.316 59.748ZM133.079 63.24C136.199 63.24 137.495 61.788 137.495 59.82C137.495 57.384 135.539 56.7 133.583 56.136C132.011 55.692 130.907 55.356 130.907 54.192C130.907 53.34 131.531 52.68 133.247 52.68C134.399 52.68 135.407 52.992 136.115 53.58L137.159 52.08C136.247 51.396 134.951 51 133.331 51C130.319 51 128.975 52.404 128.975 54.336C128.975 56.628 130.931 57.348 132.875 57.888C134.435 58.332 135.539 58.716 135.539 59.928C135.539 60.876 134.843 61.56 133.127 61.56C131.759 61.56 130.667 61.128 129.779 60.3L128.555 61.728C129.503 62.556 130.943 63.24 133.079 63.24ZM146.623 63H148.543V51.528C148.543 51.312 148.471 51.24 148.255 51.24H146.623V63ZM146.299 47.088C146.299 47.832 146.839 48.396 147.583 48.396C148.327 48.396 148.867 47.832 148.867 47.088C148.867 46.356 148.327 45.792 147.583 45.792C146.839 45.792 146.299 46.356 146.299 47.088ZM152.061 63H153.981V56.952C153.981 54.54 154.881 52.776 157.521 52.776C159.717 52.776 160.569 54.084 160.569 56.52V63H162.489V56.124C162.489 52.764 160.965 51 158.145 51C155.769 51 154.701 52.32 154.401 52.764C154.293 52.944 154.197 53.004 154.113 53.004C154.005 53.004 153.945 52.944 153.945 52.752V51.528C153.945 51.312 153.873 51.24 153.657 51.24H152.061V63ZM166.669 63H168.589V53.244C168.589 53.028 168.661 52.956 168.877 52.956H171.661C171.877 52.956 171.949 52.884 171.949 52.668V51.24H168.589V49.104C168.589 47.928 169.009 47.292 170.365 47.292C170.977 47.292 171.445 47.424 171.841 47.64L172.621 46.14C172.189 45.852 171.373 45.552 170.281 45.552C167.845 45.552 166.669 46.716 166.669 48.984V50.952C166.669 51.168 166.597 51.24 166.381 51.24H164.449V52.956H166.669V63ZM178.686 63.24C182.238 63.24 184.434 60.744 184.434 57.12C184.434 53.496 182.238 51 178.686 51C175.134 51 172.95 53.496 172.95 57.12C172.95 60.744 175.134 63.24 178.686 63.24ZM174.942 57.12C174.942 54.456 176.262 52.68 178.686 52.68C181.122 52.68 182.442 54.456 182.442 57.12C182.442 59.784 181.122 61.56 178.686 61.56C176.262 61.56 174.942 59.784 174.942 57.12ZM187.217 63H189.137V56.676C189.137 54.252 190.289 52.98 192.845 52.98H193.361V51H192.989C191.057 51 190.133 51.852 189.545 52.872C189.449 53.052 189.353 53.1 189.269 53.1C189.161 53.1 189.101 53.052 189.101 52.86V51.528C189.101 51.312 189.029 51.24 188.813 51.24H187.217V63ZM195.842 63H197.762V56.952C197.762 54.54 198.59 52.776 201.062 52.776C203.078 52.776 203.87 54.084 203.87 56.52V63H205.79V56.952C205.79 54.54 206.618 52.776 209.09 52.776C211.106 52.776 211.886 54.084 211.886 56.52V63H213.806V56.124C213.806 52.764 212.378 51 209.702 51C207.59 51 206.45 52.032 205.802 53.208C205.682 53.4 205.61 53.448 205.502 53.448C205.418 53.448 205.358 53.4 205.286 53.208C204.734 51.936 203.69 51 201.794 51C199.598 51 198.578 52.212 198.182 52.764C198.074 52.944 197.978 53.004 197.894 53.004C197.786 53.004 197.726 52.944 197.726 52.752V51.528C197.726 51.312 197.654 51.24 197.438 51.24H195.842V63ZM220.133 63.24C221.789 63.24 223.013 62.712 223.817 61.524C223.937 61.356 224.021 61.284 224.117 61.284C224.213 61.284 224.285 61.344 224.285 61.536V62.712C224.285 62.928 224.357 63 224.573 63H226.169V55.152C226.169 52.716 224.897 51 221.813 51C219.545 51 217.997 51.732 216.809 52.92L218.057 54.24C218.993 53.256 220.133 52.74 221.681 52.74C223.349 52.74 224.249 53.532 224.249 55.356V55.884L220.793 56.364C217.577 56.808 216.425 58.152 216.425 59.976C216.425 61.932 217.877 63.24 220.133 63.24ZM218.417 59.748C218.417 58.728 219.077 57.996 220.937 57.732L223.877 57.312C224.177 57.276 224.249 57.36 224.249 57.648V58.5C224.249 60.504 222.833 61.572 220.817 61.572C219.125 61.572 218.417 60.792 218.417 59.748ZM233.985 67.968C235.257 67.968 236.313 67.14 236.313 65.676C236.313 64.92 236.037 64.068 235.437 63.192C237.081 63 238.245 62.232 239.061 61.14L237.633 59.952C236.949 60.96 236.001 61.56 234.549 61.56C232.257 61.56 230.817 59.976 230.817 57.12C230.817 54.264 232.257 52.68 234.549 52.68C236.001 52.68 236.949 53.28 237.633 54.288L239.061 53.1C238.113 51.828 236.685 51 234.585 51C231.009 51 228.825 53.376 228.825 57.12C228.825 60.612 230.733 62.916 233.889 63.204C234.417 64.056 234.669 64.812 234.669 65.4C234.669 66.18 234.225 66.516 233.673 66.516C233.493 66.516 233.289 66.48 233.073 66.408L232.749 67.704C233.157 67.872 233.565 67.968 233.985 67.968ZM246.397 63.24C249.949 63.24 252.145 60.744 252.145 57.12C252.145 53.496 249.949 51 246.397 51C242.845 51 240.661 53.496 240.661 57.12C240.661 60.744 242.845 63.24 246.397 63.24ZM242.461 49.284H243.973C244.069 48.552 244.357 48.024 244.969 48.024C245.929 48.024 246.397 49.284 247.897 49.284C249.385 49.284 250.177 48.072 250.333 46.428H248.821C248.725 47.16 248.437 47.688 247.825 47.688C246.865 47.688 246.397 46.428 244.897 46.428C243.409 46.428 242.617 47.64 242.461 49.284ZM242.653 57.12C242.653 54.456 243.973 52.68 246.397 52.68C248.833 52.68 250.153 54.456 250.153 57.12C250.153 59.784 248.833 61.56 246.397 61.56C243.973 61.56 242.653 59.784 242.653 57.12ZM259.932 63.24C262.26 63.24 263.784 62.304 264.696 61.272L263.304 60.12C262.656 60.876 261.576 61.56 259.992 61.56C257.772 61.56 256.38 60.252 256.2 57.696H265.26C265.284 57.468 265.296 57.216 265.296 56.988C265.296 53.592 263.616 51 259.992 51C256.584 51 254.184 53.232 254.184 57.12C254.184 61.08 256.476 63.24 259.932 63.24ZM256.224 56.208C256.488 54.06 257.7 52.68 259.944 52.68C262.44 52.68 263.28 54.564 263.28 55.956C263.28 56.16 263.22 56.208 263.028 56.208H256.224ZM271.689 63.24C274.809 63.24 276.105 61.788 276.105 59.82C276.105 57.384 274.149 56.7 272.193 56.136C270.621 55.692 269.517 55.356 269.517 54.192C269.517 53.34 270.141 52.68 271.857 52.68C273.009 52.68 274.017 52.992 274.725 53.58L275.769 52.08C274.857 51.396 273.561 51 271.941 51C268.929 51 267.585 52.404 267.585 54.336C267.585 56.628 269.541 57.348 271.485 57.888C273.045 58.332 274.149 58.716 274.149 59.928C274.149 60.876 273.453 61.56 271.737 61.56C270.369 61.56 269.277 61.128 268.389 60.3L267.165 61.728C268.113 62.556 269.553 63.24 271.689 63.24ZM280.114 63.156C280.906 63.156 281.47 62.568 281.47 61.788C281.47 60.996 280.906 60.408 280.114 60.408C279.334 60.408 278.758 60.996 278.758 61.788C278.758 62.568 279.334 63.156 280.114 63.156Z" fill="#660099"/>
<g clip-path="url(#clip0_2_81948)">
<path d="M341.759 43.5553L336.085 27.5301C335.82 26.7801 335.863 25.9553 336.206 25.2372C336.548 24.519 337.162 23.9664 337.912 23.7008C338.662 23.4353 339.487 23.4785 340.205 23.8211C340.923 24.1637 341.476 24.7775 341.741 25.5275L346.748 39.6673M346.414 38.7247L345.079 34.9541C344.813 34.204 344.857 33.3792 345.199 32.6611C345.542 31.943 346.156 31.3904 346.906 31.1248C347.656 30.8592 348.48 30.9025 349.199 31.2451C349.917 31.5876 350.469 32.2014 350.735 32.9515L352.404 37.6647M351.402 34.8368C351.137 34.0868 351.18 33.262 351.523 32.5438C351.865 31.8257 352.479 31.2731 353.229 31.0075C353.979 30.742 354.804 30.7852 355.522 31.1278C356.24 31.4703 356.793 32.0842 357.058 32.8342L358.06 35.6621" stroke="#660099" stroke-width="4.08333" stroke-linecap="round" stroke-linejoin="round"/>
<path d="M357.726 34.7198C357.461 33.9697 357.504 33.1449 357.846 32.4268C358.189 31.7087 358.803 31.1561 359.553 30.8905C360.303 30.6249 361.128 30.6682 361.846 31.0108C362.564 31.3533 363.117 31.9671 363.382 32.7172L366.386 41.2011C367.448 44.2012 367.275 47.5004 365.905 50.3729C364.535 53.2454 362.079 55.4559 359.079 56.5181L355.309 57.8532L355.701 57.7144C353.828 58.378 351.819 58.566 349.855 58.2615C347.891 57.9569 346.034 57.1695 344.449 55.9697L343.88 55.5349C342.972 54.8401 339.633 51.972 333.861 46.9294C333.272 46.4154 332.908 45.6921 332.844 44.9133C332.781 44.1346 333.024 43.3619 333.522 42.7595C334.051 42.1176 334.781 41.6711 335.593 41.491C336.406 41.3109 337.255 41.4075 338.007 41.7654L341.76 43.5555M329.428 26.705L326.876 25.4873M330.213 34.9138L328.328 35.5813M346.396 20.6972L347.614 18.1444M350.284 25.6856L352.169 25.0181" stroke="#660099" stroke-width="4.08333" stroke-linecap="round" stroke-linejoin="round"/>
</g>
<rect x="0.5" y="0.5" width="394.268" height="77" stroke="#660099"/>
<defs>
<clipPath id="clip0_2_81948">
<rect width="48" height="48" fill="white" transform="translate(318 24.3867) rotate(-19.4976)"/>
</clipPath>
</defs>
</svg>
