<svg width="402" height="79" viewBox="0 0 402 79" fill="none" xmlns="http://www.w3.org/2000/svg">
<path d="M24.52 32.74C28.276 32.74 30.304 30.844 31.288 28.348L29.476 27.532C28.756 29.572 27.268 31 24.52 31C21.016 31 19 28.528 19 24.268C19 20.008 21.016 17.536 24.52 17.536C27.268 17.536 28.756 18.964 29.476 21.004L31.288 20.188C30.304 17.692 28.276 15.796 24.52 15.796C19.804 15.796 16.924 19.012 16.924 24.268C16.924 29.524 19.804 32.74 24.52 32.74ZM33.8723 32.5H35.5043V15.58C35.5043 15.4 35.4083 15.292 35.2163 15.292H33.5843V32.212C33.5843 32.392 33.6923 32.5 33.8723 32.5ZM39.0218 32.5H40.9418V21.028C40.9418 20.812 40.8698 20.74 40.6538 20.74H39.0218V32.5ZM38.6978 16.588C38.6978 17.332 39.2378 17.896 39.9818 17.896C40.7258 17.896 41.2658 17.332 41.2658 16.588C41.2658 15.856 40.7258 15.292 39.9818 15.292C39.2378 15.292 38.6978 15.856 38.6978 16.588ZM53.2073 31.036V37.348H55.1273V20.74H53.5313C53.3153 20.74 53.2433 20.812 53.2433 21.028V22.252C53.2433 22.444 53.1713 22.504 53.0753 22.504C52.9913 22.504 52.9193 22.456 52.7993 22.288C52.2713 21.628 51.2033 20.524 49.0433 20.524C45.9353 20.524 43.7153 22.72 43.7153 26.62C43.7153 30.664 46.0073 32.716 48.9353 32.716C51.1193 32.716 52.2113 31.66 52.7513 31C52.8833 30.832 52.9553 30.784 53.0393 30.784C53.1353 30.784 53.2073 30.844 53.2073 31.036ZM45.7073 26.62C45.7073 23.956 47.0393 22.204 49.4873 22.204C51.9233 22.204 53.2553 23.956 53.2553 26.62C53.2553 29.284 51.9233 31.036 49.4873 31.036C47.0393 31.036 45.7073 29.284 45.7073 26.62ZM62.8024 32.74C65.1544 32.74 66.2104 31.42 66.5104 30.976C66.6184 30.796 66.7024 30.736 66.7984 30.736C66.8944 30.736 66.9664 30.796 66.9664 30.988V32.212C66.9664 32.428 67.0384 32.5 67.2544 32.5H68.8504V20.74H66.9304V26.788C66.9304 29.2 66.0424 30.964 63.4264 30.964C61.2904 30.964 60.4624 29.668 60.4624 27.268V20.74H58.5424V27.712C58.5424 31.048 60.0304 32.74 62.8024 32.74ZM77.3774 32.74C79.7054 32.74 81.2294 31.804 82.1414 30.772L80.7494 29.62C80.1014 30.376 79.0214 31.06 77.4374 31.06C75.2174 31.06 73.8254 29.752 73.6454 27.196H82.7054C82.7294 26.968 82.7414 26.716 82.7414 26.488C82.7414 23.092 81.0614 20.5 77.4374 20.5C74.0294 20.5 71.6294 22.732 71.6294 26.62C71.6294 30.58 73.9214 32.74 77.3774 32.74ZM73.6694 25.708C73.9334 23.56 75.1454 22.18 77.3894 22.18C79.8854 22.18 80.7254 24.064 80.7254 25.456C80.7254 25.66 80.6654 25.708 80.4734 25.708H73.6694ZM91.7562 32.5H93.6762V26.452C93.6762 24.04 94.5762 22.276 97.2162 22.276C99.4122 22.276 100.264 23.584 100.264 26.02V32.5H102.184V25.624C102.184 22.264 100.66 20.5 97.8402 20.5C95.4642 20.5 94.3962 21.82 94.0962 22.264C93.9882 22.444 93.8922 22.504 93.8082 22.504C93.7002 22.504 93.6402 22.444 93.6402 22.252V21.028C93.6402 20.812 93.5682 20.74 93.3522 20.74H91.7562V32.5ZM110.576 32.74C114.128 32.74 116.324 30.244 116.324 26.62C116.324 22.996 114.128 20.5 110.576 20.5C107.024 20.5 104.84 22.996 104.84 26.62C104.84 30.244 107.024 32.74 110.576 32.74ZM106.832 26.62C106.832 23.956 108.152 22.18 110.576 22.18C113.012 22.18 114.332 23.956 114.332 26.62C114.332 29.284 113.012 31.06 110.576 31.06C108.152 31.06 106.832 29.284 106.832 26.62ZM122.72 32.74C125.84 32.74 127.136 31.288 127.136 29.32C127.136 26.884 125.18 26.2 123.224 25.636C121.652 25.192 120.548 24.856 120.548 23.692C120.548 22.84 121.172 22.18 122.888 22.18C124.04 22.18 125.048 22.492 125.756 23.08L126.8 21.58C125.888 20.896 124.592 20.5 122.972 20.5C119.96 20.5 118.616 21.904 118.616 23.836C118.616 26.128 120.572 26.848 122.516 27.388C124.076 27.832 125.18 28.216 125.18 29.428C125.18 30.376 124.484 31.06 122.768 31.06C121.4 31.06 120.308 30.628 119.42 29.8L118.196 31.228C119.144 32.056 120.584 32.74 122.72 32.74ZM141.28 32.74C143.38 32.74 144.808 31.912 145.756 30.64L144.328 29.452C143.644 30.46 142.696 31.06 141.244 31.06C138.952 31.06 137.512 29.476 137.512 26.62C137.512 23.764 138.952 22.18 141.244 22.18C142.696 22.18 143.644 22.78 144.328 23.788L145.756 22.6C144.808 21.328 143.38 20.5 141.28 20.5C137.704 20.5 135.52 22.876 135.52 26.62C135.52 30.364 137.704 32.74 141.28 32.74ZM153.092 32.74C156.644 32.74 158.84 30.244 158.84 26.62C158.84 22.996 156.644 20.5 153.092 20.5C149.54 20.5 147.356 22.996 147.356 26.62C147.356 30.244 149.54 32.74 153.092 32.74ZM149.348 26.62C149.348 23.956 150.668 22.18 153.092 22.18C155.528 22.18 156.848 23.956 156.848 26.62C156.848 29.284 155.528 31.06 153.092 31.06C150.668 31.06 149.348 29.284 149.348 26.62ZM161.623 32.5H163.543V26.452C163.543 24.04 164.443 22.276 167.083 22.276C169.279 22.276 170.131 23.584 170.131 26.02V32.5H172.051V25.624C172.051 22.264 170.527 20.5 167.707 20.5C165.331 20.5 164.263 21.82 163.963 22.264C163.855 22.444 163.759 22.504 163.675 22.504C163.567 22.504 163.507 22.444 163.507 22.252V21.028C163.507 20.812 163.435 20.74 163.219 20.74H161.623V32.5ZM180.467 32.74C182.568 32.74 183.996 31.912 184.944 30.64L183.516 29.452C182.832 30.46 181.884 31.06 180.432 31.06C178.14 31.06 176.7 29.476 176.7 26.62C176.7 23.764 178.14 22.18 180.432 22.18C181.884 22.18 182.832 22.78 183.516 23.788L184.944 22.6C183.996 21.328 182.568 20.5 180.467 20.5C176.892 20.5 174.708 22.876 174.708 26.62C174.708 30.364 176.892 32.74 180.467 32.74ZM192.291 32.74C194.619 32.74 196.143 31.804 197.055 30.772L195.663 29.62C195.015 30.376 193.935 31.06 192.351 31.06C190.131 31.06 188.739 29.752 188.559 27.196H197.619C197.643 26.968 197.655 26.716 197.655 26.488C197.655 23.092 195.975 20.5 192.351 20.5C188.943 20.5 186.543 22.732 186.543 26.62C186.543 30.58 188.835 32.74 192.291 32.74ZM188.583 25.708C188.847 23.56 190.059 22.18 192.303 22.18C194.799 22.18 195.639 24.064 195.639 25.456C195.639 25.66 195.579 25.708 195.387 25.708H188.583ZM200.436 32.5H202.356V21.028C202.356 20.812 202.284 20.74 202.068 20.74H200.436V32.5ZM200.112 16.588C200.112 17.332 200.652 17.896 201.396 17.896C202.14 17.896 202.68 17.332 202.68 16.588C202.68 15.856 202.14 15.292 201.396 15.292C200.652 15.292 200.112 15.856 200.112 16.588ZM209.965 32.74C211.021 32.74 211.897 32.476 212.461 32.116L211.729 30.544C211.261 30.832 210.745 31 210.121 31C208.933 31 208.489 30.496 208.489 29.224V22.744C208.489 22.528 208.561 22.456 208.777 22.456H211.549C211.765 22.456 211.849 22.384 211.849 22.168V20.74H208.489V17.668C208.489 17.452 208.417 17.368 208.201 17.368H206.569V20.452C206.569 20.668 206.497 20.74 206.281 20.74H204.349V22.456H206.569V29.512C206.569 31.828 207.733 32.74 209.965 32.74ZM219.115 32.74C222.667 32.74 224.863 30.244 224.863 26.62C224.863 22.996 222.667 20.5 219.115 20.5C215.563 20.5 213.379 22.996 213.379 26.62C213.379 30.244 215.563 32.74 219.115 32.74ZM215.371 26.62C215.371 23.956 216.691 22.18 219.115 22.18C221.551 22.18 222.871 23.956 222.871 26.62C222.871 29.284 221.551 31.06 219.115 31.06C216.691 31.06 215.371 29.284 215.371 26.62ZM231.259 32.74C234.379 32.74 235.675 31.288 235.675 29.32C235.675 26.884 233.719 26.2 231.763 25.636C230.191 25.192 229.087 24.856 229.087 23.692C229.087 22.84 229.711 22.18 231.427 22.18C232.579 22.18 233.587 22.492 234.295 23.08L235.339 21.58C234.427 20.896 233.131 20.5 231.511 20.5C228.499 20.5 227.155 21.904 227.155 23.836C227.155 26.128 229.111 26.848 231.055 27.388C232.615 27.832 233.719 28.216 233.719 29.428C233.719 30.376 233.023 31.06 231.307 31.06C229.939 31.06 228.847 30.628 227.959 29.8L226.735 31.228C227.683 32.056 229.123 32.74 231.259 32.74ZM244.803 37.348H246.723V31.036C246.723 30.844 246.795 30.784 246.891 30.784C246.975 30.784 247.047 30.832 247.179 31C247.719 31.66 248.811 32.716 250.995 32.716C253.923 32.716 256.215 30.664 256.215 26.62C256.215 22.552 253.947 20.524 251.067 20.524C248.823 20.524 247.659 21.628 247.131 22.288C247.011 22.456 246.939 22.504 246.855 22.504C246.747 22.504 246.687 22.444 246.687 22.252V21.028C246.687 20.812 246.615 20.74 246.399 20.74H244.803V37.348ZM246.675 26.62C246.675 23.956 248.007 22.204 250.443 22.204C252.891 22.204 254.223 23.956 254.223 26.62C254.223 29.284 252.891 31.036 250.443 31.036C248.007 31.036 246.675 29.284 246.675 26.62ZM261.922 32.74C263.578 32.74 264.802 32.212 265.606 31.024C265.726 30.856 265.81 30.784 265.906 30.784C266.002 30.784 266.074 30.844 266.074 31.036V32.212C266.074 32.428 266.146 32.5 266.362 32.5H267.958V24.652C267.958 22.216 266.686 20.5 263.602 20.5C261.334 20.5 259.786 21.232 258.598 22.42L259.846 23.74C260.782 22.756 261.922 22.24 263.47 22.24C265.138 22.24 266.038 23.032 266.038 24.856V25.384L262.582 25.864C259.366 26.308 258.214 27.652 258.214 29.476C258.214 31.432 259.666 32.74 261.922 32.74ZM260.206 29.248C260.206 28.228 260.866 27.496 262.726 27.232L265.666 26.812C265.966 26.776 266.038 26.86 266.038 27.148V28C266.038 30.004 264.622 31.072 262.606 31.072C260.914 31.072 260.206 30.292 260.206 29.248ZM271.358 32.5H273.278V26.176C273.278 23.752 274.43 22.48 276.986 22.48H277.502V20.5H277.13C275.198 20.5 274.274 21.352 273.686 22.372C273.59 22.552 273.494 22.6 273.41 22.6C273.302 22.6 273.242 22.552 273.242 22.36V21.028C273.242 20.812 273.17 20.74 272.954 20.74H271.358V32.5ZM282.407 32.74C284.063 32.74 285.287 32.212 286.091 31.024C286.211 30.856 286.295 30.784 286.391 30.784C286.487 30.784 286.559 30.844 286.559 31.036V32.212C286.559 32.428 286.631 32.5 286.847 32.5H288.443V24.652C288.443 22.216 287.171 20.5 284.087 20.5C281.819 20.5 280.271 21.232 279.083 22.42L280.331 23.74C281.267 22.756 282.407 22.24 283.955 22.24C285.623 22.24 286.523 23.032 286.523 24.856V25.384L283.067 25.864C279.851 26.308 278.699 27.652 278.699 29.476C278.699 31.432 280.151 32.74 282.407 32.74ZM280.691 29.248C280.691 28.228 281.351 27.496 283.211 27.232L286.151 26.812C286.451 26.776 286.523 26.86 286.523 27.148V28C286.523 30.004 285.107 31.072 283.091 31.072C281.399 31.072 280.691 30.292 280.691 29.248ZM22.768 63.74C25.096 63.74 26.62 62.804 27.532 61.772L26.14 60.62C25.492 61.376 24.412 62.06 22.828 62.06C20.608 62.06 19.216 60.752 19.036 58.196H28.096C28.12 57.968 28.132 57.716 28.132 57.488C28.132 54.092 26.452 51.5 22.828 51.5C19.42 51.5 17.02 53.732 17.02 57.62C17.02 61.58 19.312 63.74 22.768 63.74ZM19.06 56.708C19.324 54.56 20.536 53.18 22.78 53.18C25.276 53.18 26.116 55.064 26.116 56.456C26.116 56.66 26.056 56.708 25.864 56.708H19.06ZM29.1524 63.5H31.4924L32.6444 61.772C33.3884 60.656 33.9524 59.78 34.6364 58.7C35.3444 59.78 35.9324 60.668 36.6884 61.772L37.8764 63.5H40.3004L36.0764 57.536L40.1924 51.74H38.2364C37.9964 51.74 37.8764 51.788 37.7564 52.004L36.8444 53.372C36.1484 54.44 35.6324 55.232 35.1884 55.964C35.0804 56.168 34.9724 56.264 34.8164 56.264C34.6724 56.264 34.5884 56.168 34.4564 55.964C33.9644 55.136 33.4364 54.332 32.7884 53.36L31.6964 51.74H29.2964L33.3764 57.524L29.1524 63.5ZM42.2327 68.348H44.1528V62.036C44.1528 61.844 44.2248 61.784 44.3208 61.784C44.4048 61.784 44.4768 61.832 44.6088 62C45.1488 62.66 46.2408 63.716 48.4248 63.716C51.3528 63.716 53.6448 61.664 53.6448 57.62C53.6448 53.552 51.3768 51.524 48.4968 51.524C46.2528 51.524 45.0888 52.628 44.5608 53.288C44.4408 53.456 44.3688 53.504 44.2848 53.504C44.1768 53.504 44.1168 53.444 44.1168 53.252V52.028C44.1168 51.812 44.0448 51.74 43.8288 51.74H42.2327V68.348ZM44.1048 57.62C44.1048 54.956 45.4368 53.204 47.8728 53.204C50.3208 53.204 51.6528 54.956 51.6528 57.62C51.6528 60.284 50.3208 62.036 47.8728 62.036C45.4368 62.036 44.1048 60.284 44.1048 57.62ZM59.3519 63.74C61.0079 63.74 62.2319 63.212 63.0359 62.024C63.1559 61.856 63.2399 61.784 63.3359 61.784C63.4319 61.784 63.5039 61.844 63.5039 62.036V63.212C63.5039 63.428 63.5759 63.5 63.7919 63.5H65.3879V55.652C65.3879 53.216 64.1159 51.5 61.0319 51.5C58.7639 51.5 57.2159 52.232 56.0279 53.42L57.2759 54.74C58.2119 53.756 59.3519 53.24 60.8999 53.24C62.5679 53.24 63.4679 54.032 63.4679 55.856V56.384L60.0119 56.864C56.7959 57.308 55.6439 58.652 55.6439 60.476C55.6439 62.432 57.0959 63.74 59.3519 63.74ZM57.6359 60.248C57.6359 59.228 58.2959 58.496 60.1559 58.232L63.0959 57.812C63.3959 57.776 63.4679 57.86 63.4679 58.148V59C63.4679 61.004 62.0519 62.072 60.0359 62.072C58.3439 62.072 57.6359 61.292 57.6359 60.248ZM68.7874 63.5H70.7074V57.452C70.7074 55.04 71.6074 53.276 74.2474 53.276C76.4434 53.276 77.2954 54.584 77.2954 57.02V63.5H79.2154V56.624C79.2154 53.264 77.6914 51.5 74.8714 51.5C72.4954 51.5 71.4274 52.82 71.1274 53.264C71.0194 53.444 70.9234 53.504 70.8394 53.504C70.7314 53.504 70.6714 53.444 70.6714 53.252V52.028C70.6714 51.812 70.5994 51.74 70.3834 51.74H68.7874V63.5ZM87.0916 63.716C89.1676 63.716 90.3076 62.732 90.9556 61.952C91.0876 61.784 91.1476 61.736 91.2316 61.736C91.3276 61.736 91.3996 61.796 91.3996 61.988V63.212C91.3996 63.428 91.4716 63.5 91.6876 63.5H93.2836V46.292H91.6516C91.4356 46.292 91.3636 46.364 91.3636 46.58V53.204C91.3636 53.396 91.2916 53.456 91.1956 53.456C91.1116 53.456 91.0396 53.408 90.9076 53.24C90.3916 52.568 89.3596 51.524 87.1996 51.524C84.0916 51.524 81.8716 53.72 81.8716 57.62C81.8716 61.664 84.1996 63.716 87.0916 63.716ZM83.8636 57.62C83.8636 54.956 85.1956 53.204 87.6436 53.204C90.0796 53.204 91.4116 54.956 91.4116 57.62C91.4116 60.284 90.0796 62.036 87.6436 62.036C85.1956 62.036 83.8636 60.284 83.8636 57.62ZM96.8187 63.5H98.7387V52.028C98.7387 51.812 98.6667 51.74 98.4507 51.74H96.8187V63.5ZM96.4947 47.588C96.4947 48.332 97.0347 48.896 97.7787 48.896C98.5227 48.896 99.0627 48.332 99.0627 47.588C99.0627 46.856 98.5227 46.292 97.7787 46.292C97.0347 46.292 96.4947 46.856 96.4947 47.588ZM102.256 63.5H104.176V57.176C104.176 54.752 105.328 53.48 107.884 53.48H108.4V51.5H108.028C106.096 51.5 105.172 52.352 104.584 53.372C104.488 53.552 104.392 53.6 104.308 53.6C104.2 53.6 104.14 53.552 104.14 53.36V52.028C104.14 51.812 104.068 51.74 103.852 51.74H102.256V63.5ZM120.032 63.74C121.688 63.74 122.912 63.212 123.716 62.024C123.836 61.856 123.92 61.784 124.016 61.784C124.112 61.784 124.184 61.844 124.184 62.036V63.212C124.184 63.428 124.256 63.5 124.472 63.5H126.068V55.652C126.068 53.216 124.796 51.5 121.712 51.5C119.444 51.5 117.896 52.232 116.708 53.42L117.956 54.74C118.892 53.756 120.032 53.24 121.58 53.24C123.248 53.24 124.148 54.032 124.148 55.856V56.384L120.692 56.864C117.476 57.308 116.324 58.652 116.324 60.476C116.324 62.432 117.776 63.74 120.032 63.74ZM118.316 60.248C118.316 59.228 118.976 58.496 120.836 58.232L123.776 57.812C124.076 57.776 124.148 57.86 124.148 58.148V59C124.148 61.004 122.732 62.072 120.716 62.072C119.024 62.072 118.316 61.292 118.316 60.248ZM133.079 63.74C136.199 63.74 137.495 62.288 137.495 60.32C137.495 57.884 135.539 57.2 133.583 56.636C132.011 56.192 130.907 55.856 130.907 54.692C130.907 53.84 131.531 53.18 133.247 53.18C134.399 53.18 135.407 53.492 136.115 54.08L137.159 52.58C136.247 51.896 134.951 51.5 133.331 51.5C130.319 51.5 128.975 52.904 128.975 54.836C128.975 57.128 130.931 57.848 132.875 58.388C134.435 58.832 135.539 59.216 135.539 60.428C135.539 61.376 134.843 62.06 133.127 62.06C131.759 62.06 130.667 61.628 129.779 60.8L128.555 62.228C129.503 63.056 130.943 63.74 133.079 63.74ZM146.623 63.5H148.543V52.028C148.543 51.812 148.471 51.74 148.255 51.74H146.623V63.5ZM146.299 47.588C146.299 48.332 146.839 48.896 147.583 48.896C148.327 48.896 148.867 48.332 148.867 47.588C148.867 46.856 148.327 46.292 147.583 46.292C146.839 46.292 146.299 46.856 146.299 47.588ZM152.061 63.5H153.981V57.452C153.981 55.04 154.881 53.276 157.521 53.276C159.717 53.276 160.569 54.584 160.569 57.02V63.5H162.489V56.624C162.489 53.264 160.965 51.5 158.145 51.5C155.769 51.5 154.701 52.82 154.401 53.264C154.293 53.444 154.197 53.504 154.113 53.504C154.005 53.504 153.945 53.444 153.945 53.252V52.028C153.945 51.812 153.873 51.74 153.657 51.74H152.061V63.5ZM166.669 63.5H168.589V53.744C168.589 53.528 168.661 53.456 168.877 53.456H171.661C171.877 53.456 171.949 53.384 171.949 53.168V51.74H168.589V49.604C168.589 48.428 169.009 47.792 170.365 47.792C170.977 47.792 171.445 47.924 171.841 48.14L172.621 46.64C172.189 46.352 171.373 46.052 170.281 46.052C167.845 46.052 166.669 47.216 166.669 49.484V51.452C166.669 51.668 166.597 51.74 166.381 51.74H164.449V53.456H166.669V63.5ZM178.686 63.74C182.238 63.74 184.434 61.244 184.434 57.62C184.434 53.996 182.238 51.5 178.686 51.5C175.134 51.5 172.95 53.996 172.95 57.62C172.95 61.244 175.134 63.74 178.686 63.74ZM174.942 57.62C174.942 54.956 176.262 53.18 178.686 53.18C181.122 53.18 182.442 54.956 182.442 57.62C182.442 60.284 181.122 62.06 178.686 62.06C176.262 62.06 174.942 60.284 174.942 57.62ZM187.217 63.5H189.137V57.176C189.137 54.752 190.289 53.48 192.845 53.48H193.361V51.5H192.989C191.057 51.5 190.133 52.352 189.545 53.372C189.449 53.552 189.353 53.6 189.269 53.6C189.161 53.6 189.101 53.552 189.101 53.36V52.028C189.101 51.812 189.029 51.74 188.813 51.74H187.217V63.5ZM195.842 63.5H197.762V57.452C197.762 55.04 198.59 53.276 201.062 53.276C203.078 53.276 203.87 54.584 203.87 57.02V63.5H205.79V57.452C205.79 55.04 206.618 53.276 209.09 53.276C211.106 53.276 211.886 54.584 211.886 57.02V63.5H213.806V56.624C213.806 53.264 212.378 51.5 209.702 51.5C207.59 51.5 206.45 52.532 205.802 53.708C205.682 53.9 205.61 53.948 205.502 53.948C205.418 53.948 205.358 53.9 205.286 53.708C204.734 52.436 203.69 51.5 201.794 51.5C199.598 51.5 198.578 52.712 198.182 53.264C198.074 53.444 197.978 53.504 197.894 53.504C197.786 53.504 197.726 53.444 197.726 53.252V52.028C197.726 51.812 197.654 51.74 197.438 51.74H195.842V63.5ZM220.133 63.74C221.789 63.74 223.013 63.212 223.817 62.024C223.937 61.856 224.021 61.784 224.117 61.784C224.213 61.784 224.285 61.844 224.285 62.036V63.212C224.285 63.428 224.357 63.5 224.573 63.5H226.169V55.652C226.169 53.216 224.897 51.5 221.813 51.5C219.545 51.5 217.997 52.232 216.809 53.42L218.057 54.74C218.993 53.756 220.133 53.24 221.681 53.24C223.349 53.24 224.249 54.032 224.249 55.856V56.384L220.793 56.864C217.577 57.308 216.425 58.652 216.425 60.476C216.425 62.432 217.877 63.74 220.133 63.74ZM218.417 60.248C218.417 59.228 219.077 58.496 220.937 58.232L223.877 57.812C224.177 57.776 224.249 57.86 224.249 58.148V59C224.249 61.004 222.833 62.072 220.817 62.072C219.125 62.072 218.417 61.292 218.417 60.248ZM233.985 68.468C235.257 68.468 236.313 67.64 236.313 66.176C236.313 65.42 236.037 64.568 235.437 63.692C237.081 63.5 238.245 62.732 239.061 61.64L237.633 60.452C236.949 61.46 236.001 62.06 234.549 62.06C232.257 62.06 230.817 60.476 230.817 57.62C230.817 54.764 232.257 53.18 234.549 53.18C236.001 53.18 236.949 53.78 237.633 54.788L239.061 53.6C238.113 52.328 236.685 51.5 234.585 51.5C231.009 51.5 228.825 53.876 228.825 57.62C228.825 61.112 230.733 63.416 233.889 63.704C234.417 64.556 234.669 65.312 234.669 65.9C234.669 66.68 234.225 67.016 233.673 67.016C233.493 67.016 233.289 66.98 233.073 66.908L232.749 68.204C233.157 68.372 233.565 68.468 233.985 68.468ZM246.397 63.74C249.949 63.74 252.145 61.244 252.145 57.62C252.145 53.996 249.949 51.5 246.397 51.5C242.845 51.5 240.661 53.996 240.661 57.62C240.661 61.244 242.845 63.74 246.397 63.74ZM242.461 49.784H243.973C244.069 49.052 244.357 48.524 244.969 48.524C245.929 48.524 246.397 49.784 247.897 49.784C249.385 49.784 250.177 48.572 250.333 46.928H248.821C248.725 47.66 248.437 48.188 247.825 48.188C246.865 48.188 246.397 46.928 244.897 46.928C243.409 46.928 242.617 48.14 242.461 49.784ZM242.653 57.62C242.653 54.956 243.973 53.18 246.397 53.18C248.833 53.18 250.153 54.956 250.153 57.62C250.153 60.284 248.833 62.06 246.397 62.06C243.973 62.06 242.653 60.284 242.653 57.62ZM259.932 63.74C262.26 63.74 263.784 62.804 264.696 61.772L263.304 60.62C262.656 61.376 261.576 62.06 259.992 62.06C257.772 62.06 256.38 60.752 256.2 58.196H265.26C265.284 57.968 265.296 57.716 265.296 57.488C265.296 54.092 263.616 51.5 259.992 51.5C256.584 51.5 254.184 53.732 254.184 57.62C254.184 61.58 256.476 63.74 259.932 63.74ZM256.224 56.708C256.488 54.56 257.7 53.18 259.944 53.18C262.44 53.18 263.28 55.064 263.28 56.456C263.28 56.66 263.22 56.708 263.028 56.708H256.224ZM271.689 63.74C274.809 63.74 276.105 62.288 276.105 60.32C276.105 57.884 274.149 57.2 272.193 56.636C270.621 56.192 269.517 55.856 269.517 54.692C269.517 53.84 270.141 53.18 271.857 53.18C273.009 53.18 274.017 53.492 274.725 54.08L275.769 52.58C274.857 51.896 273.561 51.5 271.941 51.5C268.929 51.5 267.585 52.904 267.585 54.836C267.585 57.128 269.541 57.848 271.485 58.388C273.045 58.832 274.149 59.216 274.149 60.428C274.149 61.376 273.453 62.06 271.737 62.06C270.369 62.06 269.277 61.628 268.389 60.8L267.165 62.228C268.113 63.056 269.553 63.74 271.689 63.74ZM280.114 63.656C280.906 63.656 281.47 63.068 281.47 62.288C281.47 61.496 280.906 60.908 280.114 60.908C279.334 60.908 278.758 61.496 278.758 62.288C278.758 63.068 279.334 63.656 280.114 63.656Z" fill="white"/>
<g clip-path="url(#clip0_3_89047)">
<path d="M347.759 44.0555L342.085 28.0304C341.82 27.2803 341.863 26.4555 342.206 25.7374C342.548 25.0193 343.162 24.4667 343.912 24.2011C344.662 23.9355 345.487 23.9788 346.205 24.3214C346.923 24.6639 347.476 25.2777 347.741 26.0278L352.748 40.1676M352.414 39.2249L351.079 35.4543C350.813 34.7043 350.857 33.8795 351.199 33.1614C351.542 32.4432 352.156 31.8906 352.906 31.625C353.656 31.3595 354.48 31.4027 355.199 31.7453C355.917 32.0879 356.469 32.7017 356.735 33.4517L358.404 38.165M357.402 35.337C357.137 34.587 357.18 33.7622 357.523 33.0441C357.865 32.3259 358.479 31.7733 359.229 31.5078C359.979 31.2422 360.804 31.2855 361.522 31.628C362.24 31.9706 362.793 32.5844 363.058 33.3344L364.06 36.1624" stroke="white" stroke-width="4.08333" stroke-linecap="round" stroke-linejoin="round"/>
<path d="M363.726 35.2198C363.461 34.4697 363.504 33.6449 363.846 32.9268C364.189 32.2087 364.803 31.6561 365.553 31.3905C366.303 31.1249 367.128 31.1682 367.846 31.5108C368.564 31.8533 369.117 32.4671 369.382 33.2172L372.386 41.7011C373.448 44.7012 373.275 48.0004 371.905 50.8729C370.535 53.7454 368.079 55.9559 365.079 57.0181L361.309 58.3532L361.701 58.2144C359.828 58.878 357.819 59.066 355.855 58.7615C353.891 58.4569 352.034 57.6695 350.449 56.4697L349.88 56.0349C348.972 55.3401 345.633 52.472 339.861 47.4294C339.272 46.9154 338.908 46.1921 338.844 45.4133C338.781 44.6346 339.024 43.8619 339.522 43.2595C340.051 42.6176 340.781 42.1711 341.593 41.991C342.406 41.8109 343.255 41.9075 344.007 42.2654L347.76 44.0555M335.428 27.205L332.876 25.9873M336.213 35.4138L334.328 36.0813M352.396 21.1972L353.614 18.6444M356.284 26.1856L358.169 25.5181" stroke="white" stroke-width="4.08333" stroke-linecap="round" stroke-linejoin="round"/>
</g>
<rect x="0.5" y="1" width="400.268" height="77" stroke="white"/>
<defs>
<clipPath id="clip0_3_89047">
<rect width="48" height="48" fill="white" transform="translate(324 24.8867) rotate(-19.4976)"/>
</clipPath>
</defs>
</svg>
