<svg width="209" height="196" viewBox="0 0 209 196" fill="none" xmlns="http://www.w3.org/2000/svg">
<g clip-path="url(#clip0_10_3)">
<path fill-rule="evenodd" clip-rule="evenodd" d="M165.936 77.8593H123.748C122.331 77.8593 121.185 76.6116 121.185 75.0935C121.185 73.5754 122.331 72.3069 123.748 72.3069H165.936C167.353 72.3069 168.5 73.5546 168.5 75.0935C168.5 76.6324 167.353 77.8593 165.936 77.8593Z" fill="#5D2784"/>
<path d="M165.937 80.75H123.77C120.747 80.75 118.309 78.2129 118.309 75.0727C118.309 71.9326 120.768 69.3955 123.77 69.3955H165.937C168.959 69.3955 171.398 71.9326 171.398 75.0727C171.398 78.2129 168.938 80.75 165.937 80.75Z" fill="#5D2784"/>
<path fill-rule="evenodd" clip-rule="evenodd" d="M150.638 193.109H94.1511C83.6667 193.109 74.162 187.744 69.2846 179.093C63.3024 171.565 58.9044 170.359 52.3803 169.319C51.1297 169.132 50.2334 168.113 50.2334 166.948V96.2842C50.2334 95.5772 50.5669 94.9117 51.1297 94.4542C51.5257 94.1423 91.5873 61.7425 106.637 14.848C110.784 3.34798 118.705 2.68252 121.936 2.91127C129.398 3.47276 136.777 10.0858 138.131 17.3643C139.632 22.8544 139.924 34.8536 125.896 75.1973C126.376 79.0029 128.335 99.8403 115.453 116.019C114.62 117.101 112.994 117.309 111.827 116.518C110.68 115.728 110.43 114.231 111.285 113.15C123.916 97.2824 120.727 75.5301 120.685 75.3221C120.644 74.9478 120.685 74.5942 120.789 74.2407C131.065 44.7731 135.192 26.0362 133.087 18.5081C133.087 18.4249 133.046 18.3625 133.025 18.2793C132.108 13.1428 126.626 8.13101 121.498 7.73589C115.975 7.31997 113.036 12.1862 111.535 16.3245C97.361 60.5363 61.5307 92.1874 55.3818 97.3656V164.952C61.6141 166.116 67.1168 168.238 73.5575 176.389C73.6409 176.493 73.7034 176.597 73.766 176.701C77.7054 183.834 85.5218 188.285 94.1303 188.285H150.158C151.409 188.077 152.639 188.721 153.055 189.865C153.306 190.593 153.201 191.446 152.701 192.069C152.222 192.693 151.451 193.088 150.617 193.088L150.638 193.109Z" fill="#5D2784"/>
<path d="M150.638 196H94.1513C82.7081 196 72.2862 190.156 66.8668 180.715C61.4892 173.998 57.8415 173.125 51.901 172.189C49.2539 171.773 47.3154 169.569 47.3154 166.969V96.2844C47.3154 94.7039 48.0241 93.2274 49.2747 92.2084C50.9214 90.8775 89.3155 59.2679 103.844 13.9748C108.846 0.145578 119.08 -0.187154 122.124 0.0415998C130.857 0.707064 139.278 8.17274 140.945 16.7406C142.634 23.0417 142.717 35.5192 128.856 75.5302C129.461 81.0203 130.649 101.587 117.746 117.829C115.954 120.116 112.619 120.595 110.201 118.889C109.013 118.078 108.179 116.789 107.971 115.354C107.762 113.94 108.158 112.484 109.055 111.34C120.81 96.5755 117.892 75.9461 117.851 75.7382C117.726 74.8647 117.809 74.0537 118.08 73.2843C130.649 37.2868 131.67 24.0399 130.336 19.2569L130.253 18.8618C129.544 14.9106 125.146 10.8762 121.331 10.585C118.372 10.3563 115.995 12.6022 114.328 17.2605C100.634 60.0166 67.2837 90.9398 58.3418 98.6551V162.581C64.449 164.079 69.9309 167.011 75.8922 174.56C76.0381 174.726 76.2674 175.059 76.455 175.454C79.8108 181.505 86.6267 185.353 94.193 185.353H150.033C152.597 185.041 155.015 186.496 155.849 188.867C156.453 190.593 156.141 192.444 155.015 193.837C154.619 194.357 154.119 194.794 153.556 195.127V195.938H150.659L150.638 196Z" fill="#5D2784"/>
<path fill-rule="evenodd" clip-rule="evenodd" d="M160.476 106.225C153.223 106.225 147.324 111.569 147.324 118.12C147.324 124.67 153.223 130.036 160.476 130.036H182.133C189.387 130.036 195.285 124.691 195.285 118.141C195.285 111.59 189.387 106.225 182.133 106.225H160.476ZM182.133 134.798H160.476C150.325 134.798 142.071 127.332 142.071 118.141C142.071 108.949 150.325 101.462 160.476 101.462H182.133C192.284 101.462 200.538 108.928 200.538 118.12C200.538 127.312 192.284 134.798 182.133 134.798Z" fill="#5D2784"/>
<path d="M182.133 137.689H160.476C148.741 137.689 139.174 128.913 139.174 118.141C139.174 107.368 148.72 98.5718 160.476 98.5718H182.133C193.868 98.5718 203.435 107.348 203.435 118.12C203.435 128.892 193.889 137.689 182.133 137.689ZM160.476 109.115C154.827 109.115 150.221 113.15 150.221 118.12C150.221 123.09 154.827 127.145 160.476 127.145H182.133C187.781 127.145 192.388 123.111 192.388 118.141C192.388 113.17 187.781 109.115 182.133 109.115H160.476Z" fill="#5D2784"/>
<path fill-rule="evenodd" clip-rule="evenodd" d="M152.118 164.536C144.864 164.536 138.966 169.88 138.966 176.431C138.966 182.982 144.864 188.347 152.118 188.347H173.775C181.028 188.347 186.927 183.003 186.927 176.452C186.927 169.901 181.028 164.536 173.775 164.536H152.118ZM173.775 193.109H152.118C141.967 193.109 133.713 185.644 133.713 176.452C133.713 167.26 141.967 159.774 152.118 159.774H173.775C183.925 159.774 192.18 167.239 192.18 176.431C192.18 185.623 183.925 193.109 173.775 193.109Z" fill="#5D2784"/>
<path d="M173.774 196H152.118C140.383 196 130.815 187.224 130.815 176.452C130.815 165.68 140.362 156.883 152.118 156.883H173.774C185.509 156.883 195.077 165.659 195.077 176.431C195.077 187.203 185.53 196 173.774 196ZM152.118 167.427C146.469 167.427 141.863 171.461 141.863 176.431C141.863 181.401 146.469 185.456 152.118 185.456H173.774C179.423 185.456 184.029 181.422 184.029 176.452C184.029 171.482 179.423 167.427 173.774 167.427H152.118Z" fill="#5D2784"/>
<path fill-rule="evenodd" clip-rule="evenodd" d="M155.87 135.38C148.783 135.38 143.03 140.725 143.03 147.276C143.03 153.826 148.783 159.192 155.87 159.192H177.005C184.092 159.192 189.845 153.847 189.845 147.296C189.845 140.746 184.092 135.38 177.005 135.38H155.87ZM177.005 163.954H155.87C145.969 163.954 137.902 156.488 137.902 147.296C137.902 138.105 145.969 130.618 155.87 130.618H177.005C186.906 130.618 194.972 138.084 194.972 147.276C194.972 156.467 186.906 163.954 177.005 163.954Z" fill="#5D2784"/>
<path d="M177.005 166.844H155.869C144.364 166.844 135.005 158.069 135.005 147.296C135.005 136.524 144.364 127.728 155.869 127.728H177.005C188.511 127.728 197.87 136.503 197.87 147.276C197.87 158.048 188.511 166.844 177.005 166.844ZM155.869 138.271C150.388 138.271 145.927 142.305 145.927 147.276C145.927 152.246 150.388 156.301 155.869 156.301H177.005C182.487 156.301 186.947 152.267 186.947 147.296C186.947 142.326 182.487 138.271 177.005 138.271H155.869Z" fill="#5D2784"/>
<path fill-rule="evenodd" clip-rule="evenodd" d="M166.041 77.2563C158.787 77.2563 152.888 82.8295 152.888 89.6505C152.888 96.4716 158.787 102.066 166.041 102.066H187.697C194.951 102.066 200.85 96.4923 200.85 89.6713C200.85 82.8503 194.951 77.2563 187.697 77.2563H166.041ZM187.697 107.015H166.041C155.89 107.015 147.636 99.2374 147.636 89.6713C147.636 80.1053 155.89 72.3069 166.041 72.3069H187.697C197.848 72.3069 206.102 80.0845 206.102 89.6505C206.102 99.2166 197.848 107.015 187.697 107.015Z" fill="#5D2784"/>
<path d="M187.698 109.926H166.042C154.307 109.926 144.739 100.839 144.739 89.6921C144.739 78.5456 154.286 69.437 166.042 69.437H187.698C199.433 69.437 209 78.5248 209 89.6713C209 100.818 199.454 109.926 187.698 109.926ZM166.042 80.1676C160.393 80.1676 155.786 84.4308 155.786 89.6713C155.786 94.9118 160.393 99.1957 166.042 99.1957H187.698C193.347 99.1957 197.953 94.9326 197.953 89.6921C197.953 84.4516 193.347 80.1676 187.698 80.1676H166.042Z" fill="#5D2784"/>
<path fill-rule="evenodd" clip-rule="evenodd" d="M18.3218 77.1315C12.694 77.1315 8.12924 81.353 8.12924 86.5728V178.864C8.12924 184.063 12.694 188.306 18.3218 188.306H38.9779C44.6058 188.306 49.1705 184.084 49.1705 178.864V86.5728C49.1705 81.3738 44.6058 77.1315 38.9779 77.1315H18.3218ZM38.9779 193.109H18.3218C9.81758 193.109 2.89746 186.704 2.89746 178.844V86.5728C2.89746 78.712 9.81758 72.3069 18.3218 72.3069H38.9779C47.4822 72.3069 54.4023 78.712 54.4023 86.5728V178.864C54.4023 186.725 47.4822 193.13 38.9779 193.13" fill="#5D2784"/>
<path d="M38.9778 196H18.3216C8.21243 196 0 188.306 0 178.844V86.5728C0 77.1107 8.21243 69.4163 18.3216 69.4163H38.9778C49.087 69.4163 57.2994 77.1107 57.2994 86.5728V178.864C57.2994 188.326 49.087 196.021 38.9778 196.021V196ZM18.3216 80.0221C14.2988 80.0221 11.0263 82.9543 11.0263 86.5728V178.864C11.0263 182.483 14.2988 185.415 18.3216 185.415H38.9778C43.0006 185.415 46.2731 182.483 46.2731 178.864V86.5728C46.2731 82.9543 43.0006 80.0221 38.9778 80.0221H18.3216Z" fill="#5D2784"/>
</g>
<defs>
<clipPath id="clip0_10_3">
<rect width="209" height="196" fill="white"/>
</clipPath>
</defs>
</svg>
