<svg width="81" height="37" viewBox="0 0 81 37" fill="none" xmlns="http://www.w3.org/2000/svg">
<path d="M18.6783 36.833C13.7423 36.833 9.09829 34.933 5.60229 31.478C2.09229 28.015 0.162287 23.401 0.165287 18.499C0.162287 13.597 2.09229 8.98704 5.60229 5.52004C9.10129 2.06704 13.7473 0.165039 18.6883 0.165039H18.6943C23.6233 0.165039 28.2643 2.06704 31.7673 5.52004L40.1653 13.815C43.3223 10.7 48.5633 5.52504 48.5633 5.52504C52.0593 2.07004 56.7013 0.166039 61.6363 0.166039H61.6393H61.6423C71.8573 0.166039 80.1653 8.39204 80.1653 18.499C80.1653 23.405 78.2313 28.014 74.7233 31.477C71.2273 34.932 66.5843 36.832 61.6433 36.832C61.6403 36.832 61.6373 36.832 61.6373 36.832C56.7083 36.832 52.0673 34.932 48.5573 31.48L40.1623 23.185C37.0083 26.3 31.7663 31.476 31.7663 31.476C28.2503 34.931 23.6093 36.831 18.6873 36.831C18.6873 36.833 18.6813 36.833 18.6783 36.833ZM44.8623 18.457L53.2383 26.735C55.4873 28.946 58.4723 30.167 61.6363 30.167H61.6423C64.8163 30.167 67.8013 28.948 70.0403 26.735C72.2673 24.534 73.4973 21.608 73.4973 18.499C73.4973 12.066 68.1793 6.83304 61.6393 6.83304C58.4683 6.83304 55.4873 8.05404 53.2433 10.267C49.3913 14.073 46.7443 16.686 44.8623 18.457ZM18.6933 6.83304H18.6873C15.5093 6.83304 12.5283 8.05004 10.2893 10.264C8.05629 12.467 6.83229 15.391 6.83229 18.499C6.83229 21.608 8.05629 24.534 10.2893 26.735C12.5283 28.948 15.5103 30.167 18.6813 30.167H18.6843C21.8483 30.167 24.8333 28.946 27.0863 26.729C30.9403 22.926 33.5833 20.313 35.4653 18.545L27.0823 10.264C24.8403 8.05004 21.8573 6.83304 18.6933 6.83304Z" fill="#660099"/>
</svg>
