<svg width="136" height="97" viewBox="0 0 136 97" fill="none" xmlns="http://www.w3.org/2000/svg">
<path d="M71.2649 96.4839C60.3038 96.4839 49.8734 92.2331 42.0675 84.7011C38.2801 86.407 34.1566 87.2955 29.9431 87.2955C13.6174 87.2955 0.333008 74.0153 0.333008 57.6895C0.333008 45.1966 8.00195 34.3373 19.413 30.032C20.6714 13.5058 34.5273 0.445801 51.3698 0.445801C61.1659 0.445801 70.3433 4.90042 76.404 12.4811L81.3566 13.4156C81.4622 13.4346 81.5629 13.4546 81.6636 13.4832C89.346 15.4295 96.1924 19.4257 101.634 25.1074C103.029 24.9058 104.433 24.7994 105.843 24.7994C122.116 24.7994 135.357 38.04 135.357 54.3171C135.357 70.593 122.116 83.8337 105.843 83.8337C104.433 83.8337 103.026 83.7281 101.634 83.5249C93.7054 91.7972 82.7999 96.4839 71.2649 96.4839Z" fill="#660099"/>
</svg>
