<svg width="81" height="80" viewBox="0 0 81 80" fill="none" xmlns="http://www.w3.org/2000/svg">
<path fill-rule="evenodd" clip-rule="evenodd" d="M2.1599 10.6892L37.1911 0.224124C38.0652 -0.0730073 39.0697 -0.0730076 39.9036 0.214051L75.2814 10.7043C76.5824 11.1475 77.3961 12.1547 77.3961 13.318C77.3961 13.3885 77.371 13.449 77.3609 13.5195H77.3961V27.4091C78.6167 27.7113 79.4405 28.512 79.4405 29.5092C79.4405 30.2746 78.9382 30.9344 78.1596 31.3322L80.4301 36.0662C80.6561 36.5446 80.631 37.1087 80.3446 37.5518C80.0232 38.0655 79.4003 38.3929 78.7322 38.3929H73.8799C73.2118 38.3929 72.589 38.0706 72.2675 37.5518C71.9812 37.0986 71.946 36.5446 72.1821 36.0662L74.4525 31.3322C73.6639 30.9344 73.1616 30.2797 73.1616 29.5092C73.1616 28.512 73.9854 27.7113 75.206 27.4091V15.9519L60.9504 20.424V35.9C60.9504 36.4993 60.4581 36.9928 59.8604 36.9928C51.3964 36.9928 44.6705 39.3296 39.2807 44.134C39.0798 44.3153 38.8136 44.411 38.5524 44.411C38.2912 44.411 38.04 44.3153 37.824 44.134C35.5033 42.0743 32.9968 40.5131 30.1989 39.3648V53.2343C32.158 51.2702 33.9261 49.84 36.5833 48.6817C37.7436 48.1781 39.9186 48.6212 41.089 49.986C41.5913 50.5601 42.596 52.1667 41.1845 54.443C41.1242 54.5487 35.4129 65.2203 34.338 67.6024C33.8457 68.6801 33.464 69.6168 33.1073 70.5032C32.6402 71.6413 32.1981 72.7191 31.6154 73.9328C29.9327 77.4228 25.6781 79.684 20.5144 79.8301H20.0372C15.7927 79.8301 10.6088 78.3092 8.22786 73.9831L7.94151 73.4896C7.12776 72.0744 5.42997 69.1384 4.82217 65.8901C3.91299 61.0252 4.77192 51.2803 4.79703 50.9681C4.79703 49.0745 6.69579 47.7701 8.52421 47.5989C9.22744 47.5284 9.86037 47.6241 10.423 47.8507C10.7947 46.4607 12.5377 45.4031 14.1752 45.237C15.0141 45.1413 15.7625 45.2722 16.3854 45.5845C16.8877 44.688 17.8773 43.8571 19.0878 43.4491C20.0924 43.1016 21.082 43.1016 21.9661 43.4139V37.29C20.4591 37.1238 18.8969 37.0029 17.2594 37.0029C16.6617 37.0029 16.1694 36.5094 16.1694 35.9101V20.3887L2.11471 15.9419C0.813724 15.4987 0 14.4914 0 13.3281C0 12.1648 0.813712 11.1575 2.16493 10.7043V10.6942L2.1599 10.6892ZM74.548 36.1971H78.0842L76.3161 32.5157L74.548 36.1971ZM19.9317 45.4636C18.917 45.7607 18.259 46.5564 18.2339 46.8183V52.8717C18.2439 53.4811 17.6964 53.9746 17.159 53.9746C16.5612 53.9746 16.0689 53.4811 16.0689 52.8818V48.4097C15.9233 47.9162 15.637 47.3924 14.7077 47.3773C13.6177 47.3773 12.6281 48.1075 12.5578 48.3845V54.1962C12.5578 54.7955 12.0655 55.289 11.4677 55.289C10.87 55.289 10.3778 54.7955 10.3778 54.1962V50.8422C10.1517 49.845 9.38815 49.704 8.75022 49.7644C7.85611 49.85 7.00722 50.4242 7.00722 51.0486C7.00722 51.1443 6.14825 60.8892 6.99716 65.467C7.53463 68.3427 9.10188 71.0622 9.8654 72.3716L10.1617 72.9004C11.8093 75.8868 15.8982 77.73 20.4742 77.6091C24.7539 77.4883 28.3755 75.6652 29.6765 72.9457C30.224 71.7974 30.656 70.7499 31.1131 69.6369C31.4848 68.7254 31.8766 67.7686 32.379 66.6656C33.479 64.2181 39.0597 53.8185 39.3209 53.3149C40.0644 52.1163 39.6324 51.5875 39.5018 51.4213C39.0497 50.8724 38.1857 50.6306 37.7185 50.6306C37.6231 50.6306 37.5377 50.6306 37.4925 50.6659C34.4234 52.0206 32.595 53.8538 29.9377 56.6941C29.6263 57.0164 29.1591 57.1272 28.7422 56.9711C28.3253 56.8049 28.049 56.397 28.049 55.9538V34.2129C28.049 32.5812 26.306 32.5359 26.1152 32.5359C25.9243 32.5359 24.1813 32.5862 24.1813 34.2129V51.0285C24.1813 51.6278 23.689 52.1213 23.0912 52.1213C22.4935 52.1213 22.0012 51.6278 22.0012 51.0285V45.937C21.4537 45.388 20.7605 45.242 19.9468 45.4837L19.9217 45.4737L19.9317 45.4636ZM18.3645 34.8072C19.6052 34.8323 20.8007 34.928 21.9761 35.059V34.2079C21.9761 29.1264 30.224 29.1365 30.224 34.2079V37.0029C33.258 38.1511 36.0659 39.7728 38.5775 41.8678C44.0175 37.3151 50.648 34.9985 58.7855 34.8223V21.124L39.9388 27.0465C39.4967 27.1925 39.0296 27.263 38.5624 27.263C38.0953 27.263 37.6432 27.1925 37.2112 27.0465L18.3545 21.0787V34.8273L18.3645 34.8172V34.8072ZM2.80287 13.8418L37.9044 24.9414C38.3213 25.0874 38.8236 25.0874 39.2405 24.9414H39.2656L74.5681 13.8519C75.0101 13.7058 75.201 13.4691 75.201 13.313C75.201 13.1569 75.0001 12.9151 74.6033 12.7842L39.2255 2.299C39.0245 2.2285 38.7935 2.19325 38.5675 2.19325C38.3414 2.19325 38.0752 2.2285 37.8491 2.31411L2.81796 12.7792C2.37592 12.9353 2.17498 13.1619 2.17498 13.318C2.17498 13.4742 2.3759 13.7159 2.79785 13.8468L2.80287 13.8418Z" fill="#370054"/>
</svg>
