<svg width="83" height="87" viewBox="0 0 83 87" fill="none" xmlns="http://www.w3.org/2000/svg">
<path fill-rule="evenodd" clip-rule="evenodd" d="M40.5314 0.888509L40.4611 7.77792C40.4511 8.31174 40.873 8.74989 41.4004 8.75997H41.4105C41.531 8.75997 41.6466 8.73982 41.7571 8.69953C42.1288 8.55852 42.3749 8.20095 42.3799 7.79806L42.4553 0.908658C42.4151 0.369793 41.953 -0.0331055 41.4256 0.00214738C40.9434 0.0374002 40.5666 0.425191 40.5314 0.908658V0.888509Z" fill="#370054"/>
<path fill-rule="evenodd" clip-rule="evenodd" d="M0.944347 41.7214L7.75568 41.7969C7.87624 41.7969 7.9968 41.7768 8.10731 41.7315C8.6046 41.5451 8.86078 40.9962 8.67492 40.4976C8.53428 40.1199 8.17764 39.8681 7.77077 39.8681L0.959431 39.7976C0.426982 39.7976 0 40.2257 0 40.7595C0 41.2933 0.426982 41.7214 0.959431 41.7214H0.939319H0.944347Z" fill="#370054"/>
<path fill-rule="evenodd" clip-rule="evenodd" d="M12.6583 70.3165C12.7839 70.2711 12.8994 70.1956 12.9949 70.0999L17.9427 65.2854C18.3294 64.9077 18.3395 64.2933 17.9577 63.9055C17.581 63.5227 16.9581 63.5127 16.5764 63.8904L11.6286 68.7099C11.2418 69.0876 11.2418 69.702 11.6236 70.0848C11.8898 70.3517 12.2866 70.4424 12.6433 70.3165H12.6634H12.6583Z" fill="#370054"/>
<path fill-rule="evenodd" clip-rule="evenodd" d="M17.0382 18.1423C17.3094 18.4192 17.7163 18.5099 18.078 18.3739C18.2035 18.3236 18.3191 18.2531 18.4145 18.1574C18.7913 17.7696 18.7913 17.1602 18.4145 16.7724L13.6174 11.8169C13.2407 11.4291 12.6279 11.419 12.2461 11.7967C11.8644 12.1795 11.8544 12.7989 12.2311 13.1867L17.0432 18.1423H17.0382Z" fill="#370054"/>
<path fill-rule="evenodd" clip-rule="evenodd" d="M60.1015 21.2647C49.7991 10.8147 32.9968 10.7241 22.5839 21.0582C12.166 31.3873 12.0705 48.2381 22.3779 58.6881C24.1009 60.4356 26.0498 61.9313 28.1846 63.135C29.2094 63.7041 29.8473 64.7919 29.8473 65.9653L29.7569 74.577C29.7368 77.639 30.9323 80.5851 33.0872 82.7607C36.1111 85.873 40.6872 86.8803 44.7358 85.3342C49.0054 83.7075 51.8586 79.6283 51.9239 75.0454L52.0193 66.1969C52.0444 65.0235 52.7025 63.9458 53.7422 63.4019C66.6567 56.452 71.504 40.3163 64.5721 27.3735C63.3816 25.1374 61.8696 23.0877 60.0965 21.2798V21.2647H60.1015ZM40.873 84.0802C38.4619 84.0802 36.1563 83.1032 34.4686 81.3708C32.6803 79.5628 31.6908 77.1253 31.7008 74.5821V74.4562L49.985 74.6526V75.0101C49.9096 80.016 45.861 84.0399 40.868 84.0802H40.873ZM52.828 61.6644C51.1654 62.5457 50.1105 64.2731 50.0754 66.1617L50.005 72.7187L45.856 72.6734L46.1774 41.9027C46.1774 41.3638 45.7454 40.9307 45.208 40.9307C44.6705 40.9307 44.2385 41.3638 44.2385 41.9027L43.917 72.6734L37.819 72.613L38.1455 41.8372C38.1053 41.2984 37.6381 40.8955 37.1057 40.9307C36.6185 40.966 36.2367 41.3538 36.2015 41.8372L35.8801 72.613L31.726 72.5727L31.7963 66.0156C31.7963 64.1321 30.7866 62.3947 29.1441 61.473C17.3197 54.7901 13.1254 39.7573 19.791 27.8922C26.4567 16.0321 41.4507 11.8371 53.2801 18.52C65.1045 25.2029 69.2988 40.2357 62.6331 52.0958C60.3426 56.17 56.942 59.514 52.8331 61.7198V61.6644H52.828Z" fill="#370054"/>
<path fill-rule="evenodd" clip-rule="evenodd" d="M81.1685 40.6336L74.3169 40.563C73.7795 40.6033 73.3776 41.0667 73.4128 41.5954C73.4479 42.0789 73.8347 42.4566 74.3169 42.4919L81.1685 42.5624C81.289 42.5624 81.4096 42.5422 81.5251 42.502C82.0274 42.3055 82.2786 41.7516 82.0827 41.253C81.942 40.8854 81.5854 40.6386 81.1886 40.6336H81.1685Z" fill="#370054"/>
<path fill-rule="evenodd" clip-rule="evenodd" d="M69.0026 12.4162L64.0397 17.2358C63.6529 17.6135 63.653 18.2279 64.0347 18.6106C64.306 18.8775 64.6978 18.9682 65.0544 18.8423C65.18 18.797 65.2955 18.7214 65.3909 18.6257L70.3538 13.8112C70.7406 13.4335 70.7506 12.8191 70.3689 12.4363C69.9921 12.0486 69.3693 12.0385 68.9825 12.4162H69.0026Z" fill="#370054"/>
<path fill-rule="evenodd" clip-rule="evenodd" d="M64.9588 64.3688C64.582 63.981 63.9692 63.9709 63.5875 64.3537C63.2057 64.7364 63.1956 65.3508 63.5724 65.7386L68.3795 70.6942C68.6507 70.9711 69.0576 71.0618 69.4193 70.9258C69.5449 70.8755 69.6604 70.805 69.7558 70.7093C70.1326 70.3215 70.1326 69.7121 69.7558 69.3243L64.9588 64.3688Z" fill="#370054"/>
<path fill-rule="evenodd" clip-rule="evenodd" d="M41.3504 20.5898H41.2198C30.5507 20.5092 21.8406 29.1059 21.7603 39.7824C21.8004 40.3264 22.2676 40.7292 22.8051 40.694C23.2923 40.6587 23.6791 40.2709 23.7143 39.7875C23.7796 30.1836 31.6156 22.4532 41.2098 22.5186H41.3353C50.9646 22.6395 58.6801 30.5311 58.5847 40.1702C58.5646 40.7091 58.9815 41.1573 59.524 41.1775H59.5541C59.6747 41.1775 59.7953 41.1623 59.9058 41.117C60.2724 40.9659 60.5186 40.6134 60.5336 40.2155C60.6442 29.4987 52.0546 20.7107 41.3504 20.5898Z" fill="#370054"/>
</svg>
