<svg width="104" height="82" viewBox="0 0 104 82" fill="none" xmlns="http://www.w3.org/2000/svg">
<path fill-rule="evenodd" clip-rule="evenodd" d="M103.737 7.72541V32.3873C103.737 36.6478 100.251 40.1228 95.9715 40.1228H90.2854V75.0482C90.2854 78.3973 87.5729 81.1117 84.2275 81.1117H6.04781C2.71247 81.1117 0 78.3973 0 75.0482V18.9257C0 15.5767 2.71247 12.8522 6.04781 12.8522H53.9482V7.72541C53.9482 3.46485 57.4192 0 61.6989 0H95.9766C100.256 0 103.742 3.46485 103.742 7.72541H103.737ZM101.919 32.3873V7.72541C101.919 4.462 99.2566 1.81301 95.9715 1.81301H61.6938C58.4238 1.81301 55.7465 4.462 55.7465 7.72541V32.3873C55.7465 35.6507 58.4238 38.2997 61.6938 38.2997H65.9836C66.2548 38.2997 66.5211 38.4256 66.6919 38.6371C66.8677 38.8637 66.9279 39.1357 66.8677 39.4127L65.0241 47.7122L77.2554 38.486C77.4061 38.3601 77.6021 38.2997 77.803 38.2997H95.9665C99.2516 38.2997 101.914 35.6507 101.914 32.3873H101.919ZM88.4821 75.0482V40.1228H78.1043L65.2251 49.8475C64.9739 50.0338 64.6775 50.1346 64.3812 50.1346C64.12 50.1346 63.8588 50.059 63.6227 49.8979C63.1254 49.5856 62.8893 48.9964 63.025 48.4223L64.8534 40.1228H61.6938C57.4141 40.1228 53.9432 36.6478 53.9432 32.3873V31.7376H1.80328V75.0482C1.80328 77.385 3.70705 79.2987 6.04781 79.2987H84.2275C86.5783 79.2987 88.4821 77.385 88.4821 75.0482ZM53.9432 29.9095V14.6601H6.04279C3.70202 14.6601 1.79825 16.5739 1.79825 18.9207V29.9095H53.9382H53.9432Z" fill="#370054"/>
<path fill-rule="evenodd" clip-rule="evenodd" d="M18.7012 72.4244H81.691V74.2022H18.7012V72.4244Z" fill="#370054"/>
<path fill-rule="evenodd" clip-rule="evenodd" d="M39.763 37.2975C48.016 37.2975 54.7218 44.0308 54.7218 52.3001C54.7218 60.5694 48.016 67.2926 39.763 67.2926C31.51 67.2926 24.8042 60.5744 24.8042 52.3001C24.8042 44.0257 31.5251 37.2975 39.763 37.2975ZM52.9035 52.3001C52.9035 45.0279 47.0063 39.1256 39.763 39.1256C32.5197 39.1256 26.6226 45.0279 26.6226 52.3001C26.6226 59.5722 32.5197 65.4746 39.763 65.4746C47.0063 65.4746 52.9035 59.5571 52.9035 52.3001Z" fill="#370054"/>
<path fill-rule="evenodd" clip-rule="evenodd" d="M35.6994 59.8794C35.4131 59.7183 35.2373 59.401 35.2373 59.0787V45.7078C35.2373 45.3804 35.4131 45.0833 35.6994 44.9171C35.9857 44.756 36.3223 44.756 36.6086 44.9272L47.7951 51.6051C48.0714 51.7662 48.2321 52.0684 48.2321 52.3957C48.2321 52.7231 48.0714 53.0102 47.7951 53.1713L36.6086 59.8643C36.4579 59.9499 36.3072 59.9902 36.1465 59.9902C35.9857 59.9902 35.835 59.955 35.6994 59.8794ZM37.0456 57.4722L45.5548 52.3957L37.0456 47.3093V57.4722Z" fill="#370054"/>
<path fill-rule="evenodd" clip-rule="evenodd" d="M25.3969 21.3129C26.1604 21.3129 26.7732 21.9323 26.7732 22.7028C26.7732 23.4734 26.1604 24.0777 25.3969 24.0777C24.6334 24.0777 24.0205 23.4582 24.0205 22.7028C24.0205 21.9474 24.6334 21.3129 25.3969 21.3129Z" fill="#370054"/>
<path fill-rule="evenodd" clip-rule="evenodd" d="M18.5002 21.3129C19.2687 21.3129 19.8866 21.9323 19.8866 22.7028C19.8866 23.4734 19.2687 24.0777 18.5002 24.0777C17.7317 24.0777 17.1289 23.4582 17.1289 22.7028C17.1289 21.9474 17.7467 21.3129 18.5002 21.3129Z" fill="#370054"/>
<path fill-rule="evenodd" clip-rule="evenodd" d="M14.5669 70.0575H16.34V76.5692H14.5669V70.0575Z" fill="#370054"/>
<path fill-rule="evenodd" clip-rule="evenodd" d="M8.66504 72.4244H12.2063V74.2022H8.66504V72.4244Z" fill="#370054"/>
<path fill-rule="evenodd" clip-rule="evenodd" d="M11.6086 21.3129C12.3772 21.3129 12.995 21.9323 12.995 22.7028C12.995 23.4734 12.3772 24.0777 11.6086 24.0777C10.8401 24.0777 10.2373 23.4582 10.2373 22.7028C10.2373 21.9474 10.8552 21.3129 11.6086 21.3129Z" fill="#370054"/>
</svg>
