<!-- icon666.com - MILLIONS vector ICONS FREE --><svg version="1.1" id="Capa_1" xmlns="http://www.w3.org/2000/svg" xmlns:xlink="http://www.w3.org/1999/xlink" x="0px" y="0px" viewBox="0 0 380 380" style="enable-background:new 0 0 380 380;" xml:space="preserve"><g id="XMLID_226_"><path id="XMLID_239_" d="M290,170H125V95c0-35.841,29.159-65,65-65c35.841,0,65,29.159,65,65v30c0,8.284,6.716,15,15,15 s15-6.716,15-15V95c0-52.383-42.617-95-95-95c-52.383,0-95,42.617-95,95v75h-5c-13.807,0-25,11.193-25,25v160 c0,13.807,11.193,25,25,25h200c13.807,0,25-11.193,25-25V195C315,181.193,303.807,170,290,170z M285,350H95V200h190V350z"></path><path id="XMLID_242_" d="M175,285.977V320h30v-34.023c8.965-5.188,15-14.874,15-25.977c0-16.569-13.432-30-30-30 c-16.569,0-30,13.431-30,30C160,271.103,166.035,280.789,175,285.977z"></path></g></svg>