<!-- icon666.com - MILLIONS vector ICONS FREE --><svg viewBox="0 -41 512 512" xmlns="http://www.w3.org/2000/svg"><path d="m476.210938 113.976562c0-8.414062-6.820313-15.234374-15.234376-15.234374h-65.335937c-8.414063 0-15.234375 6.820312-15.234375 15.234374v254.320313h95.804688zm0 0"></path><path d="m361.339844 163.515625c0-8.414063-6.824219-15.234375-15.234375-15.234375h-65.335938c-8.414062 0-15.234375 6.820312-15.234375 15.234375v204.78125h95.804688zm0 0"></path><path d="m246.464844 221.3125c0-8.414062-6.820313-15.234375-15.234375-15.234375h-65.335938c-8.410156 0-15.234375 6.820313-15.234375 15.234375v146.984375h95.804688zm0 0"></path><path d="m131.59375 279.109375c0-8.414063-6.824219-15.238281-15.234375-15.238281h-65.335937c-8.414063 0-15.234376 6.824218-15.234376 15.238281v89.1875h95.804688zm0 0"></path><path d="m496.765625 398.765625h-481.53125c-8.414063 0-15.234375 6.820313-15.234375 15.234375s6.820312 15.234375 15.234375 15.234375h481.53125c8.414063 0 15.234375-6.820313 15.234375-15.234375s-6.820312-15.234375-15.234375-15.234375zm0 0"></path><path d="m78.011719 164.566406c.441406 0 .886719-.019531 1.332031-.058594 3.464844-.300781 85.652344-7.816406 153.820312-47.304687 45.824219-26.542969 72.011719-49.472656 84.492188-61.960937l-.210938 10.769531c-.167968 8.410156 6.515626 15.367187 14.929688 15.53125.101562.003906.203125.003906.304688.003906 8.277343 0 15.0625-6.625 15.226562-14.933594l.992188-50.085937c.082031-4.039063-1.445313-7.945313-4.246094-10.855469-2.800782-2.914063-6.644532-4.597656-10.683594-4.675781l-50.085938-.99218775c-8.410156-.18359425-15.367187 6.51562475-15.535156 14.92968775-.164062 8.414062 6.519532 15.367187 14.933594 15.535156l15.710938.308594c-8.574219 9.113281-32.679688 32.007812-81.101563 60.058594-62.148437 36.003906-140.378906 43.246093-141.1875 43.316406-8.378906.734375-14.578125 8.117187-13.851563 16.496094.6875 7.933593 7.339844 13.917968 15.160157 13.917968zm0 0"></path></svg>