<!-- icon666.com - MILLIONS vector ICONS FREE --><svg version="1.1" id="Capa_1" xmlns="http://www.w3.org/2000/svg" xmlns:xlink="http://www.w3.org/1999/xlink" x="0px" y="0px" viewBox="0 0 511.991 511.991" style="enable-background:new 0 0 511.991 511.991;" xml:space="preserve"><g><g><g><path d="M22.188,98.583c5.505,0,10.914-2.061,14.936-5.769h177.904c17.635,0,24.611,3.87,33.965,18.824l29.987,48.007 c-5.459,7.341-8.695,16.43-8.695,26.26c0,24.3,19.774,44.083,44.074,44.083c24.318,0,44.101-19.774,44.101-44.083 c0-9.044-7.331-16.384-16.384-16.384s-16.392,7.331-16.392,16.384c0,6.239-5.085,11.316-11.325,11.316 s-11.298-5.077-11.298-11.316c0-3.941,2.015-7.412,5.067-9.441c0.166-0.096,0.334-0.184,0.498-0.286 c0.068-0.043,0.128-0.093,0.195-0.136c1.638-0.927,3.524-1.461,5.538-1.461c9.053,0,16.384-7.34,16.384-16.384 c0-9.044-7.331-16.384-16.384-16.384c-2.548,0-5.042,0.23-7.473,0.647L276.781,94.27c-0.309-0.495-0.621-0.973-0.932-1.456 h86.941c17.626,0,24.611,3.87,33.956,18.824l29.993,48.006c-5.458,7.341-8.693,16.43-8.693,26.261 c0,24.3,19.765,44.083,44.065,44.083c24.327,0,44.101-19.774,44.101-44.083c0-9.044-7.331-16.384-16.384-16.384 s-16.384,7.331-16.384,16.384c0,6.239-5.085,11.316-11.334,11.316c-6.23,0-11.298-5.077-11.298-11.316 c0-3.959,2.039-7.443,5.115-9.468c0.15-0.087,0.302-0.167,0.45-0.259c0.058-0.037,0.11-0.08,0.168-0.117 c1.645-0.938,3.542-1.48,5.566-1.48c9.053,0,16.384-7.34,16.384-16.384c0-9.044-7.331-16.384-16.384-16.384 c-2.548,0-5.041,0.23-7.472,0.647L424.544,94.27c-15.398-24.62-32.723-34.223-61.753-34.223H37.084 c-8.382-7.494-22.524-7.267-30.605,0.728C2.396,64.858,0,70.626,0,76.395c0,5.858,2.396,11.627,6.479,15.709 C10.65,96.276,16.33,98.583,22.188,98.583z"></path><path d="M474.883,418.808H297.026c-17.635,0-24.611-3.87-33.965-18.824l-29.996-48.023c5.454-7.337,8.687-16.417,8.687-26.236 c0-9.053-7.34-16.384-16.384-16.384c-9.044,0-16.384,7.331-16.384,16.384c0,6.239-5.085,11.316-11.334,11.316 c-6.23,0-11.298-5.077-11.298-11.316c0-6.239,5.068-11.316,11.298-11.316c9.044,0,16.384-7.34,16.384-16.392 s-7.331-16.392-16.384-16.392c-24.291,0-44.065,19.792-44.065,44.101c0,24.3,19.765,44.083,44.065,44.083 c2.563,0,5.072-0.232,7.516-0.654l30.097,48.198c0.309,0.495,0.621,0.973,0.932,1.456h-86.932 c-17.635,0-24.611-3.87-33.965-18.824l-29.996-48.023c5.454-7.337,8.687-16.417,8.687-26.236c0-9.053-7.34-16.384-16.384-16.384 c-9.044,0-16.384,7.331-16.384,16.384c0,6.239-5.085,11.316-11.334,11.316c-6.23,0-11.298-5.077-11.298-11.316 c0-6.239,5.068-11.316,11.298-11.316c9.044,0,16.384-7.34,16.384-16.392s-7.331-16.392-16.384-16.392 c-24.291,0-44.065,19.792-44.065,44.101c0,24.3,19.765,44.083,44.065,44.083c2.563,0,5.072-0.232,7.516-0.654L87.5,417.353 c15.398,24.62,32.714,34.214,61.753,34.214h325.562c4.102,3.67,9.458,5.84,14.996,5.84c5.866,0,11.547-2.405,15.709-6.47 c4.162-4.18,6.47-9.958,6.47-15.718c0-5.866-2.299-11.626-6.47-15.718C497.505,411.493,483.333,411.278,474.883,418.808z"></path><path d="M22.188,216.712c5.513,0,10.851-2.143,14.94-5.795h142.444c17.635,0,24.62,3.87,33.974,18.824l43.426,69.519 c15.398,24.629,32.723,34.232,61.753,34.232h156.159c4.094,3.64,9.42,5.787,14.927,5.787c5.866,0,11.547-2.396,15.709-6.479 c4.162-4.18,6.47-9.843,6.47-15.709c0-5.866-2.299-11.547-6.47-15.718c-8.029-8.029-22.309-8.232-30.685-0.657H318.725 c-17.626,0-24.611-3.861-33.974-18.824l-43.426-69.519c-15.398-24.62-32.714-34.223-61.753-34.223H37.153 c-8.377-7.557-22.657-7.352-30.674,0.666C2.396,182.986,0,188.666,0,194.524s2.396,11.529,6.479,15.709 C10.65,214.315,16.33,216.712,22.188,216.712z"></path></g></g></g></svg>