<svg width="71" height="71" viewBox="0 0 71 71" fill="none" xmlns="http://www.w3.org/2000/svg">
<path d="M64.9073 16.3629L63.8599 16.6949L58.2819 17.1919L56.7064 19.7079L55.5632 19.3446L51.1239 15.3422L50.4799 13.2608L49.6175 11.0412L46.8274 8.53857L43.5359 7.89453L43.4601 9.40101L46.6847 12.5477L48.2625 14.4063L46.4886 15.3333L45.0446 14.9077L42.8807 14.0051L42.9542 12.2602L40.1151 11.0925L39.1724 15.1951L36.311 15.8436L36.594 18.1323L40.3223 18.8499L40.9664 15.1929L44.044 15.6475L45.4747 16.4855H47.77L49.3411 19.6321L53.5062 23.8574L53.2009 25.4998L49.8426 25.0719L44.0395 28.0024L39.861 33.0144L39.3173 35.234H37.8175L35.0229 33.9459L32.3086 35.234L32.9838 38.0976L34.1649 36.736L36.2419 36.6713L36.0971 39.2431L37.8175 39.7467L39.5357 41.6766L42.3414 40.8877L45.546 41.3936L49.2676 42.3942L51.1262 42.6126L54.2773 46.1893L60.3589 49.7661L56.4256 57.2807L52.2739 59.2106L50.6983 63.5049L44.6902 67.5162L44.0506 69.8294C59.4096 66.1301 70.8352 52.3334 70.8352 35.8379C70.8307 28.6331 68.6468 21.9275 64.9073 16.3629Z" fill="#660099"/>
<path d="M39.8587 54.1353L37.3093 49.4086L39.6493 44.5326L37.3093 43.8329L34.6819 41.1943L28.861 39.8884L26.9289 35.8459V38.246H26.0776L21.0612 31.4446V25.8577L17.3842 19.8786L11.5454 20.9193H7.61212L5.6332 19.6223L8.15811 17.6211L5.63988 18.2027C2.60465 23.3863 0.835205 29.401 0.835205 35.8437C0.835205 55.1716 16.5039 70.847 35.834 70.847C37.3227 70.847 38.7824 70.7155 40.2264 70.5416L39.861 66.3008C39.861 66.3008 41.4677 60.003 41.4677 59.7891C41.4655 59.5729 39.8587 54.1353 39.8587 54.1353Z" fill="#660099"/>
<path d="M13.841 12.1224L20.0586 11.2555L22.9244 9.68439L26.1491 10.6137L31.3014 10.3284L33.0664 7.55393L35.6403 7.97735L41.8913 7.39125L43.614 5.49256L46.043 3.8702L49.4794 4.38721L50.7318 4.19779C46.2057 2.06733 41.1693 0.834961 35.832 0.834961C24.968 0.834961 15.2539 5.78672 8.84021 13.562H8.85804L13.841 12.1224ZM37.3117 4.3159L40.8863 2.34812L43.1816 3.67409L39.8589 6.20345L36.6855 6.52213L35.257 5.59507L37.3117 4.3159ZM26.724 4.60338L28.3018 5.26079L30.3677 4.60338L31.4931 6.55333L26.724 7.80576L24.4309 6.46419C24.4309 6.46419 26.6728 5.02011 26.724 4.60338Z" fill="#660099"/>
</svg>
