<svg width="103" height="96" viewBox="0 0 103 96" fill="none" xmlns="http://www.w3.org/2000/svg">
<path d="M102.344 39.2402C101.529 37.3739 99.7903 36.1363 97.7963 36.0184C96.503 35.9267 95.2163 36.2509 94.0637 36.8042C93.4318 36.2869 92.6886 35.8613 91.8504 35.5862C89.8597 34.9248 85.5082 35.5044 83.5961 37.5278C79.5983 32.0763 73.6589 27.6888 66.5834 24.837C65.2704 26.9783 63.2862 28.6449 60.9092 29.5486C61.3839 29.9284 61.6262 30.1969 61.6589 30.2362C62.2516 30.9172 62.1795 31.9519 61.4985 32.5478C61.1842 32.8162 60.8077 32.9505 60.4246 32.9505C59.9629 32.9505 59.5143 32.7606 59.1902 32.3873C59.1018 32.2891 56.5545 29.6075 49.9013 29.6075C43.2448 29.6075 40.7008 32.2891 40.596 32.4037C39.9903 33.0618 38.9589 33.1207 38.291 32.5248C37.623 31.9289 37.551 30.9139 38.1371 30.2394C38.268 30.0921 41.241 26.8637 48.3329 26.4217C47.0887 25.0105 46.1654 23.3112 45.7365 21.4155C41.0806 21.6479 36.6211 22.4698 32.5153 23.8417C28.5338 18.6881 18.0204 13.9306 12.5623 12.7847C12.5623 24.0807 17.5161 26.5953 17.3361 32.6886C13.1713 36.5521 10.1295 41.1949 8.57756 46.3158L2.70691 45.4514C0.925743 45.1895 -0.243148 46.4206 0.110466 48.1854L2.45807 59.9234C2.81168 61.6882 4.57321 63.1321 6.37402 63.1321H9.00975C11.0987 68.9274 15.1325 74.0418 20.5088 78.033V95.6613C29.4342 95.6613 36.6702 95.9167 36.6702 88.9099V85.4294C40.3603 86.3036 44.2598 86.7915 48.3067 86.7915C53.5749 86.7915 58.5943 85.9664 63.2175 84.5192V88.9066C63.2175 95.9167 70.4535 95.6581 79.3822 95.6581V75.322C85.5115 69.5954 89.2376 62.1728 89.2376 54.0462C89.2376 48.5881 87.5448 43.4541 84.5915 38.9259C85.6883 37.2299 89.7451 36.6045 91.3429 37.1382C91.7882 37.2855 92.1942 37.482 92.5576 37.7243C91.094 38.8244 90.0332 40.3011 89.7778 41.6795C89.5977 42.6421 89.5486 45.0028 92.9833 46.0997C93.4187 46.2372 93.8313 46.306 94.2111 46.306C95.4553 46.306 96.4081 45.6086 96.8239 44.3284C97.3674 42.6585 96.8403 40.0555 95.2916 38.0583C96.0643 37.7603 96.8894 37.6031 97.6981 37.649C99.3385 37.7472 100.399 38.8735 100.841 39.8918C101.339 41.041 101.218 42.2394 100.507 43.0972C100.219 43.4443 100.268 43.9616 100.615 44.2498C100.959 44.5379 101.483 44.4888 101.771 44.1384C102.865 42.8157 103.087 40.9395 102.344 39.2402ZM23.2034 47.0852C21.4714 47.0852 20.0667 45.6806 20.0667 43.9485C20.0667 42.2165 21.4714 40.8119 23.2034 40.8119C24.9355 40.8119 26.3401 42.2165 26.3401 43.9485C26.3401 45.6806 24.9388 47.0852 23.2034 47.0852ZM95.2654 43.8176C95.1017 44.3153 94.7415 44.9374 93.4842 44.5314C91.8733 44.0173 91.1693 43.1595 91.3887 41.9709C91.5917 40.8872 92.5412 39.6921 93.8149 38.831C95.1835 40.4484 95.6452 42.6487 95.2654 43.8176Z" fill="#660099"/>
<path d="M56.8688 27.0437C61.3751 27.0437 65.0281 23.3907 65.0281 18.8844C65.0281 14.3781 61.3751 10.7251 56.8688 10.7251C52.3625 10.7251 48.7095 14.3781 48.7095 18.8844C48.7095 23.3907 52.3625 27.0437 56.8688 27.0437Z" fill="#660099"/>
<path d="M45.4356 12.778C48.8063 12.778 51.5387 10.0456 51.5387 6.67489C51.5387 3.30423 48.8063 0.571777 45.4356 0.571777C42.065 0.571777 39.3325 3.30423 39.3325 6.67489C39.3325 10.0456 42.065 12.778 45.4356 12.778Z" fill="#660099"/>
<path d="M68.561 14.4116C70.9136 14.4116 72.8207 12.5044 72.8207 10.1518C72.8207 7.79924 70.9136 5.89209 68.561 5.89209C66.2084 5.89209 64.3013 7.79924 64.3013 10.1518C64.3013 12.5044 66.2084 14.4116 68.561 14.4116Z" fill="#660099"/>
</svg>
