<svg width="125" height="125" viewBox="0 0 125 125" fill="none" xmlns="http://www.w3.org/2000/svg">
<path d="M122.11 46.9497L97.7866 22.6267C95.9226 20.7627 93.4446 19.7363 90.8088 19.7363H9.86841C4.42676 19.7366 0 24.1633 0 29.605V95.3945C0 100.836 4.42676 105.263 9.86841 105.263H115.132C120.573 105.263 125 100.836 125 95.3945V53.9277C125 51.2917 123.974 48.8137 122.11 46.9497ZM96.0527 26.4751L118.262 48.6841H101.974C98.709 48.6841 96.0527 46.0281 96.0527 42.7629V26.4751ZM121.053 95.3945C121.053 98.6594 118.397 101.316 115.132 101.316H9.86841C6.60352 101.316 3.94727 98.6597 3.94727 95.3945V29.605C3.94727 26.3401 6.60327 23.6838 9.86841 23.6838H90.8088C91.251 23.6838 91.6838 23.7368 92.1052 23.8306V42.7627C92.1052 48.2043 96.532 52.6311 101.974 52.6311H120.906C121 53.0525 121.053 53.4856 121.053 53.9275V95.3945Z" fill="#660099"/>
<path d="M17.1052 40.1309H13.158V76.9729H17.1052V40.1309Z" fill="#660099"/>
<path d="M22.3684 40.1309H18.4211V76.9729H22.3684V40.1309Z" fill="#660099"/>
<path d="M17.1052 80.9219H13.158V84.8691H17.1052V80.9219Z" fill="#660099"/>
<path d="M22.3684 80.9219H18.4211V84.8691H22.3684V80.9219Z" fill="#660099"/>
<path d="M32.8945 80.9219H28.9473V84.8691H32.8945V80.9219Z" fill="#660099"/>
<path d="M53.9473 80.9219H50V84.8691H53.9473V80.9219Z" fill="#660099"/>
<path d="M69.7368 80.9219H65.7896V84.8691H69.7368V80.9219Z" fill="#660099"/>
<path d="M96.0525 80.9219H92.1052V84.8691H96.0525V80.9219Z" fill="#660099"/>
<path d="M106.579 80.9219H102.632V84.8691H106.579V80.9219Z" fill="#660099"/>
<path d="M111.842 80.9219H107.895V84.8691H111.842V80.9219Z" fill="#660099"/>
<path d="M32.8945 40.1309H28.9473V76.9729H32.8945V40.1309Z" fill="#660099"/>
<path d="M38.1577 40.1309H34.2104V84.8677H38.1577V40.1309Z" fill="#660099"/>
<path d="M43.4209 40.1309H39.4736V76.9729H43.4209V40.1309Z" fill="#660099"/>
<path d="M43.4209 80.9219H39.4736V84.8691H43.4209V80.9219Z" fill="#660099"/>
<path d="M53.9473 40.1309H50V76.9729H53.9473V40.1309Z" fill="#660099"/>
<path d="M59.2104 40.1309H55.2632V84.8677H59.2104V40.1309Z" fill="#660099"/>
<path d="M64.4736 40.1309H60.5264V84.8677H64.4736V40.1309Z" fill="#660099"/>
<path d="M69.7368 40.1309H65.7896V76.9729H69.7368V40.1309Z" fill="#660099"/>
<path d="M77.6316 40.1309H73.6843V76.9729H77.6316V40.1309Z" fill="#660099"/>
<path d="M85.5261 40.1309H81.5789V84.8677H85.5261V40.1309Z" fill="#660099"/>
<path d="M77.6316 80.9219H73.6843V84.8691H77.6316V80.9219Z" fill="#660099"/>
<path d="M96.0525 58.5527H92.1052V76.9739H96.0525V58.5527Z" fill="#660099"/>
<path d="M106.579 58.5527H102.632V76.9739H106.579V58.5527Z" fill="#660099"/>
<path d="M111.842 58.5527H107.895V76.9739H111.842V58.5527Z" fill="#660099"/>
</svg>
