<svg width="146" height="145" viewBox="0 0 146 145" fill="none" xmlns="http://www.w3.org/2000/svg">
<g clip-path="url(#clip0_75_205)">
<path d="M59.8284 102.288L62.4884 102.374C62.5518 102.376 62.6087 102.418 62.6287 102.478L63.7838 105.926C64.1603 107.05 65.3811 107.658 66.5106 107.283C67.6401 106.908 68.2505 105.694 67.874 104.57L66.7189 101.122C66.1308 99.3655 64.4867 98.1451 62.6265 98.0853C60.001 98.001 59.8406 98.0808 59.8183 97.8614L58.1909 81.3347C57.9726 79.1234 56.1392 77.2568 53.5048 77.33C53.3422 77.3333 52.9289 77.3455 52.7585 77.2823C52.7384 77.2369 50.7546 70.7437 50.7401 70.696C50.3168 69.3105 49.2386 68.2165 47.8573 67.7665C36.4589 64.0543 38.8905 65.0841 34.7991 62.5979H34.798C34.749 62.5679 34.7212 62.5147 34.7245 62.4582L34.827 60.7302C35.023 57.406 31.6145 55.0594 28.5613 56.4062C23.091 58.8148 20.7262 59.8955 20.0801 60.1194C16.3943 59.8833 16.3074 59.9653 16.2996 59.7381L16.2784 59.1218C16.2294 57.7053 15.4942 56.3851 14.3135 55.5926C13.1328 54.799 11.6279 54.615 10.289 55.0993C10.2433 55.1149 10.172 55.1138 10.1208 55.0561L4.35082 48.5585C4.31295 48.5164 4.30181 48.4577 4.32075 48.4056L6.46499 42.4289C6.48393 42.3779 6.52849 42.3402 6.58084 42.3292L14.983 40.6876C16.9256 40.3074 18.3647 38.7356 18.5652 36.7748C20.1013 21.6958 20.2194 25.8723 18.475 17.9648C18.4204 17.7032 18.4383 17.8052 24.2506 16.9251C24.304 16.9185 24.3553 16.9373 24.3898 16.9761L27.8005 20.8733C29.1862 22.4573 31.5254 22.8563 33.3622 21.8255L37.9938 19.2262C39.8395 18.1898 40.7017 15.9841 40.0467 13.98L38.6209 9.62059C38.5318 9.359 38.6365 9.43991 49.9838 7.55781C50.1854 7.52234 49.947 7.03795 53.331 17.1424C54.0662 19.3348 56.3263 20.5907 58.5864 20.0642L64.6304 18.6565C66.8559 18.1377 67.8607 16.2379 68.0456 14.9787C68.1503 14.8102 67.8763 14.818 74.6287 16.6624C76.4254 17.1535 78.3614 16.4696 79.4441 14.9599L81.0826 12.6776C81.1572 12.5723 81.3087 12.5978 81.3522 12.712C85.1249 22.5315 84.9913 23.0314 86.9484 24.0046L93.2452 27.1382C94.3112 27.6691 95.6056 27.239 96.138 26.1794C96.6705 25.1197 96.2394 23.8306 95.1734 23.3008C93.4736 22.4551 89.2909 20.3734 88.8743 20.1662C88.4778 19.4501 87.4652 16.6081 85.38 11.1801C84.1091 7.87371 79.6412 7.30398 77.575 10.1848L75.9364 12.467C75.8985 12.5191 75.8317 12.5424 75.7704 12.5258L69.36 10.7745C68.1692 10.4497 66.8838 10.6326 65.8323 11.2777C64.6148 12.0259 64.1436 12.9847 63.7983 14.1884C63.7983 14.2926 63.7571 14.4544 63.6479 14.4799C57.3243 15.9519 57.4948 16.0029 57.4224 15.7868L54.2455 6.30417C53.546 4.2159 51.4552 2.96338 49.2742 3.32583L38.0328 5.1902C35.3372 5.6369 33.6763 8.36696 34.5207 10.9496L35.9465 15.3079C36.0099 15.503 36.0857 15.3711 31.2436 18.089C31.1801 18.1244 31.0999 18.1111 31.052 18.0568L27.6413 14.1585C26.6321 13.0046 25.1216 12.4537 23.6023 12.6843L17.9548 13.5389C16.7384 13.7229 15.6413 14.4079 14.9451 15.4166C14.2489 16.4252 14.0005 17.6899 14.2645 18.8848L15.4809 24.3992C15.4452 25.0687 15.1422 27.8387 14.2756 36.3414C14.2578 36.5188 14.7167 36.3669 5.74987 38.1194C4.21381 38.4197 2.93283 39.5182 2.40485 40.9857L0.259483 46.9624C-0.286325 48.4865 0.042274 50.1868 1.11941 51.3994L6.88939 57.8981C8.11356 59.2748 10.025 59.7603 11.7627 59.1318C11.8652 59.0952 11.9654 59.1673 11.9688 59.2704L11.991 59.8866C12.069 62.18 13.8646 64.0211 16.1659 64.1674C22.0952 64.5487 19.2514 65.1971 30.3057 60.3289C30.4115 60.2812 30.5296 60.3599 30.5218 60.4785C30.4249 62.119 29.9604 64.6895 32.5558 66.2623C37.1651 69.0633 34.3558 67.8839 46.5162 71.8444C46.563 71.8599 46.6009 71.8976 46.6153 71.9452L48.6092 78.4661C49.3533 80.898 51.2547 81.6162 53.7454 81.6162C53.9626 81.6162 53.7977 80.7317 55.5276 98.2803C55.7459 100.494 57.595 102.216 59.8284 102.288Z" fill="#660099"/>
<path d="M130.649 66.4357C124.279 72.348 124.01 72.3303 123.638 74.0173C120.922 86.3109 120.04 90.4586 119.785 91.3675C119.72 91.4595 109.517 106.097 109.404 106.106C93.606 107.317 94.2499 107.015 92.8308 108.258C85.3053 114.787 84.9555 114.739 84.647 116.754C83.9263 121.469 83.6055 123.895 83.4273 124.558C83.4273 124.558 70.3568 137.737 70.3423 137.752C70.2822 137.812 70.1853 137.813 70.1251 137.753L60.8575 128.678C60.6381 128.467 60.3886 128.82 70.29 121.158C71.7637 120.017 72.3674 118.077 71.8071 116.312L70.9605 113.209C70.6486 112.065 69.4646 111.389 68.315 111.701C67.1655 112.011 66.4871 113.19 66.799 114.333C66.8258 114.429 67.6634 117.506 67.6946 117.602C67.7146 117.663 67.6946 117.73 67.6434 117.77L58.2231 125.062C56.0923 126.711 55.9096 129.852 57.8322 131.736L67.0998 140.811C68.853 142.528 71.6846 142.507 73.4111 140.766L86.4927 127.575C88.1535 125.899 87.6667 124.202 88.911 117.395C89.4334 116.815 91.5799 115.034 95.6545 111.499C96.6336 111.319 100.547 111.088 109.734 110.384C111.077 110.282 112.288 109.591 113.057 108.492L123.331 93.8072C123.973 92.9814 123.774 93.3904 127.848 74.9384C128.291 74.4274 130.132 72.7836 133.589 69.5736C134.46 68.7645 134.507 67.4067 133.695 66.541C132.883 65.6753 131.52 65.6276 130.649 66.4357Z" fill="#660099"/>
<path d="M144.922 45.8885C144.656 43.6528 142.749 41.968 140.488 41.968H137.311C136.372 41.3384 133.002 38.38 124.938 31.5521C123.19 30.0724 122.558 30.4626 110.757 31.0312C110.14 30.7851 107.945 29.6168 103.209 27.1949C102.151 26.6529 100.851 27.0685 100.306 28.1227C99.7615 29.1757 100.179 30.4692 101.239 31.0112C109.603 35.2898 109.435 35.3917 110.964 35.3164C118.102 34.9727 121.135 34.7499 122.151 34.8264C135.001 45.7045 135.152 46.2599 137.106 46.2599C140.516 46.2587 140.614 46.1723 140.64 46.394C140.654 46.5081 141.724 55.2182 141.642 55.298L136.803 60.0598C135.428 61.4121 136.41 63.7298 138.318 63.7298C139.482 63.7298 139.448 63.4892 144.673 58.3495C145.516 57.5204 145.999 56.3687 145.999 55.1893C146 54.8225 146.062 55.4465 144.922 45.8885Z" fill="#660099"/>
</g>
<defs>
<clipPath id="clip0_75_205">
<rect width="146" height="145" fill="white"/>
</clipPath>
</defs>
</svg>
