<svg width="116" height="116" viewBox="0 0 116 116" fill="none" xmlns="http://www.w3.org/2000/svg">
<path d="M105.367 53.4529C104.946 53.0315 104.361 52.7891 103.766 52.7891C103.17 52.7891 102.585 53.0315 102.164 53.4529C101.742 53.8743 101.5 54.4588 101.5 55.0547C101.5 55.6505 101.742 56.2351 102.164 56.6565C102.585 57.0779 103.17 57.3203 103.766 57.3203C104.361 57.3203 104.946 57.0779 105.367 56.6565C105.789 56.2351 106.031 55.6505 106.031 55.0547C106.031 54.4588 105.789 53.8743 105.367 53.4529Z" fill="#660099"/>
<path d="M103.766 47.1699C105.017 47.1699 106.031 46.1555 106.031 44.9042V6.79688C106.031 3.04908 102.982 0 99.2344 0H16.7656C13.0178 0 9.96875 3.04908 9.96875 6.79688V109.203C9.96875 112.951 13.0178 116 16.7656 116H99.2344C102.982 116 106.031 112.951 106.031 109.203V65.4766C106.031 64.2255 105.017 63.2109 103.766 63.2109C102.514 63.2109 101.5 64.2255 101.5 65.4766V109.203C101.5 110.452 100.484 111.469 99.2344 111.469H16.7656C15.5164 111.469 14.5 110.452 14.5 109.203V6.79688C14.5 5.54761 15.5164 4.53125 16.7656 4.53125H99.2344C100.484 4.53125 101.5 5.54761 101.5 6.79688V44.9042C101.5 46.1555 102.514 47.1699 103.766 47.1699Z" fill="#660099"/>
<path d="M89.706 20.1283C88.4789 20.1283 87.4807 19.3163 87.4807 18.318C87.4807 17.3198 88.4789 16.5078 89.706 16.5078H92.1202C93.3715 16.5078 94.3859 15.4935 94.3859 14.2422C94.3859 12.9909 93.3715 11.9766 92.1202 11.9766H89.7058C85.9802 11.9766 82.9492 14.8213 82.9492 18.318C82.9492 21.8148 85.9802 24.6595 89.7058 24.6595C90.9328 24.6595 91.9311 25.4715 91.9311 26.4698C91.9311 27.468 90.9328 28.28 89.7058 28.28H85.2148C83.9635 28.28 82.9492 29.2943 82.9492 30.5456C82.9492 31.7969 83.9635 32.8112 85.2148 32.8112H89.7058C93.4314 32.8112 96.4625 29.9665 96.4625 26.4698C96.4625 22.973 93.4316 20.1283 89.706 20.1283Z" fill="#660099"/>
<path d="M31.9183 12.2344H21.803C20.5517 12.2344 19.5374 13.2487 19.5374 14.5C19.5374 15.7513 20.5517 16.7656 21.803 16.7656H24.5951V30.5463C24.5951 31.7976 25.6095 32.8119 26.8608 32.8119C28.1121 32.8119 29.1264 31.7976 29.1264 30.5463V16.7656H31.9183C33.1696 16.7656 34.1839 15.7513 34.1839 14.5C34.1839 13.2487 33.1696 12.2344 31.9183 12.2344Z" fill="#660099"/>
<path d="M51.2483 29.6612L44.4843 13.7355C44.129 12.8988 43.308 12.3555 42.399 12.3555C41.49 12.3555 40.669 12.8988 40.3137 13.7355L33.5499 29.6612C33.0605 30.8128 33.5975 32.143 34.7493 32.6321C35.9007 33.1211 37.2311 32.5843 37.7203 31.4325L38.8334 28.8118H45.9646L47.0777 31.4325C47.4441 32.2952 48.2824 32.8132 49.1639 32.8129C49.4594 32.8129 49.7596 32.7549 50.0487 32.6321C51.2003 32.143 51.7375 30.8128 51.2483 29.6612ZM40.758 24.2806L42.399 20.4166L44.0402 24.2806H40.758Z" fill="#660099"/>
<path d="M66.7229 29.3427L62.4005 22.5272L66.7226 15.712C67.3928 14.6553 67.0795 13.2554 66.0228 12.5852C64.9661 11.9148 63.5662 12.2282 62.896 13.2851L59.7173 18.2971L56.5387 13.2851C55.8685 12.2282 54.4683 11.915 53.4119 12.5852C52.3552 13.2554 52.0418 14.6553 52.712 15.712L57.0344 22.5275L52.712 29.3429C52.0421 30.3994 52.3554 31.7993 53.4121 32.4695C53.7886 32.7083 54.2085 32.8222 54.6235 32.8222C55.3737 32.8222 56.1075 32.45 56.5389 31.7696L59.7176 26.7576L62.8962 31.7696C63.3276 32.45 64.0617 32.8222 64.8116 32.8222C65.2266 32.8222 65.6467 32.7083 66.023 32.4695C67.0797 31.7993 67.393 30.3994 66.7229 29.3427Z" fill="#660099"/>
<path d="M78.7519 28.29H74.427V24.7924H76.0481C77.2994 24.7924 78.3137 23.778 78.3137 22.5267C78.3137 21.2754 77.2994 20.2611 76.0481 20.2611H74.427V16.7637H78.7519C80.0032 16.7637 81.0175 15.7494 81.0175 14.498C81.0175 13.2467 80.0032 12.2324 78.7519 12.2324H72.1614C70.9101 12.2324 69.8958 13.2467 69.8958 14.498V30.5557C69.8958 31.807 70.9101 32.8213 72.1614 32.8213H78.7519C80.0032 32.8213 81.0175 31.807 81.0175 30.5557C81.0175 29.3044 80.0032 28.29 78.7519 28.29Z" fill="#660099"/>
<path d="M91.5312 81.1387H24.7959C23.5446 81.1387 22.5303 82.1532 22.5303 83.4043C22.5303 84.6554 23.5446 85.6699 24.7959 85.6699H91.5312C92.7826 85.6699 93.7969 84.6554 93.7969 83.4043C93.7969 82.1532 92.7826 81.1387 91.5312 81.1387Z" fill="#660099"/>
<path d="M49.1629 93.8262H24.7959C23.5446 93.8262 22.5303 94.8407 22.5303 96.0918C22.5303 97.3429 23.5446 98.3574 24.7959 98.3574H49.1629C50.4142 98.3574 51.4285 97.3429 51.4285 96.0918C51.4285 94.8407 50.4142 93.8262 49.1629 93.8262Z" fill="#660099"/>
<path d="M61.3191 94.49C60.8977 94.0663 60.3131 93.8262 59.7173 93.8262C59.1214 93.8262 58.5369 94.0661 58.1155 94.49C57.6941 94.9114 57.4517 95.4939 57.4517 96.0918C57.4517 96.6877 57.6941 97.2722 58.1155 97.6936C58.5369 98.1148 59.1214 98.3574 59.7173 98.3574C60.3131 98.3574 60.8977 98.115 61.3191 97.6936C61.7405 97.2722 61.9829 96.6877 61.9829 96.0918C61.9829 95.4937 61.7405 94.9114 61.3191 94.49Z" fill="#660099"/>
<path d="M91.5312 43.0762H24.7959C23.5446 43.0762 22.5303 44.0905 22.5303 45.3418V70.7168C22.5303 71.9679 23.5446 72.9824 24.7959 72.9824H91.5312C92.7826 72.9824 93.7969 71.9679 93.7969 70.7168V45.3418C93.7969 44.0905 92.7826 43.0762 91.5312 43.0762ZM37.1562 68.4512H27.0615V47.6074H37.1562V68.4512ZM78.3906 68.4512H41.6875V60.2949H78.3906V68.4512ZM78.3906 55.7637H41.6875V47.6074H78.3906V55.7637ZM89.2656 68.4512H82.9219V60.2949H89.2656V68.4512ZM89.2656 55.7637H82.9219V47.6074H89.2656V55.7637Z" fill="#660099"/>
</svg>
