<svg width="78" height="80" viewBox="0 0 78 80" fill="none" xmlns="http://www.w3.org/2000/svg">
<path fill-rule="evenodd" clip-rule="evenodd" d="M0.0141323 3.33151V66.439C0.0141323 68.2819 1.49884 69.7705 3.32998 69.7776H51.9718C52.1344 70.1816 52.3535 70.5573 52.6081 70.9117L59.162 79.5099L61.3466 77.8299L54.7998 69.2318C54.4604 68.7994 54.2837 68.2536 54.2837 67.7007V63.9155C54.2837 63.1642 54.0291 62.4341 53.5696 61.8457L46.6056 52.9853C45.637 51.7945 45.8208 50.0437 47.0086 49.0655C48.0974 48.1794 49.674 48.2432 50.678 49.2214L58.3207 56.4302L60.2013 54.4101L57.4015 51.7874V37.8517L61.1911 42.1118C63.206 44.3801 64.316 47.3075 64.316 50.3414V65.5458L75.5998 78.8861L77.6925 77.0927L67.0663 64.5322V50.3414C67.0663 46.62 65.7088 43.0404 63.2414 40.2688L57.4015 33.6979V3.33151C57.4015 1.48854 55.9169 0 54.0857 0H3.30169C1.47055 0.0141767 0 1.49563 0 3.33151H0.0141323ZM46.846 57.7274L47.0298 57.9613H46.7965C46.7965 57.8904 46.8248 57.8196 46.846 57.7487V57.7203V57.7274ZM44.4493 54.6794L46.4642 57.2383H10.6616V12.44H46.7965V46.0317C46.1531 46.2798 45.5592 46.6483 45.0502 47.1162C42.9009 49.0938 42.6393 52.4112 44.4493 54.7078V54.6794ZM54.6866 3.30315V49.1718L52.5727 47.18C51.7385 46.4002 50.678 45.897 49.5538 45.7552V11.7595C49.5538 10.6254 48.6418 9.71101 47.5177 9.71101H9.94046C8.81632 9.71101 7.91134 10.6254 7.91134 11.7525V57.9684C7.91134 59.0955 8.82339 60.0098 9.94046 60.0098H47.5177C47.8429 60.0098 48.1681 59.9248 48.4509 59.7759L51.4132 63.5469C51.4981 63.6462 51.5334 63.7738 51.5334 63.9013V66.9919H3.33703C3.02595 66.9919 2.77144 66.7367 2.77144 66.4248V3.31734C2.77144 3.00545 3.02595 2.75026 3.33703 2.75026H54.1211C54.4321 2.75026 54.6866 3.00545 54.6866 3.31734V3.3457V3.31734V3.30315Z" fill="#370054"/>
<path fill-rule="evenodd" clip-rule="evenodd" d="M26.4561 62.0797H31.7869V64.8725H26.4561V62.0797Z" fill="#370054"/>
<path fill-rule="evenodd" clip-rule="evenodd" d="M24.8438 37.5256L20.9836 33.62L19.0322 35.5905L24.7731 41.3888L39.2101 27.8571L37.3436 25.8086L24.8438 37.5256Z" fill="#370054"/>
</svg>
