<svg width="80" height="87" viewBox="0 0 80 87" fill="none" xmlns="http://www.w3.org/2000/svg">
<path fill-rule="evenodd" clip-rule="evenodd" d="M79.4022 41.4232C79.5478 42.0678 79.4022 42.7578 79.0405 43.201C78.7893 43.5132 78.4377 43.6895 78.061 43.6895H72.2995C71.9127 43.6895 71.5711 43.5132 71.3099 43.201C70.9483 42.7527 70.8126 42.0678 70.9482 41.4232L73.8617 32.9172C73.9471 32.5194 74.1329 32.2524 74.3489 32.0611V21.5859C74.2786 21.6162 74.2133 21.6564 74.143 21.7018L59.8874 27.8861V42.4002C63.6848 47.2097 65.7745 53.2077 65.7745 59.3417C65.7745 74.4803 53.4427 86.7986 38.2779 86.7986C23.1132 86.7986 10.7915 74.4803 10.7915 59.3417C10.7915 53.1372 12.9213 47.0788 16.7891 42.2441V27.8861L2.55359 21.7018C1.38823 21.173 0.669922 20.065 0.669922 18.8161C0.669922 17.5671 1.38822 16.4642 2.54353 15.9304L36.982 0.968068C37.8359 0.570214 38.8305 0.570214 39.7045 0.968068L74.1128 15.9203C75.1727 16.4088 75.8508 17.3556 75.9764 18.4484H76.0065V32.0661C76.2225 32.2726 76.4234 32.5647 76.5139 33.0028L79.3921 41.4131L79.4022 41.4232ZM77.7797 42.0275C77.7897 41.9671 77.7998 41.8916 77.7797 41.811L75.1677 34.2014L72.5456 41.8764C72.5456 41.8764 72.5456 41.9822 72.5657 42.0326M73.4598 20.1809C74.0023 19.9291 74.3439 19.4204 74.3439 18.8261C74.3439 18.2319 74.0023 17.7132 73.4397 17.4513L39.0314 2.50912C38.8004 2.40336 38.5743 2.353 38.3332 2.353C38.0921 2.353 37.8661 2.39328 37.6551 2.49904L3.21664 17.4614C2.6641 17.7132 2.33257 18.2218 2.33257 18.8261C2.33257 19.4305 2.66409 19.929 3.22668 20.1909L37.635 35.1432C38.082 35.3496 38.5793 35.3396 39.0163 35.1432H39.0264L73.4548 20.1809H73.4598ZM64.0817 60.1928H52.4783C52.418 64.2318 51.9358 68.034 51.0969 71.4183C53.8948 71.8766 56.8283 72.491 59.9878 73.2817C62.4441 69.4794 63.931 65.0023 64.0867 60.1928H64.0817ZM52.4783 58.5259H64.0616C63.9059 53.53 62.3688 48.8213 59.5508 44.7521C59.4051 44.8578 59.2494 44.9283 59.0636 44.9283C56.0497 44.9283 53.2719 45.2607 50.6901 45.9154C51.7901 49.758 52.408 54.079 52.4783 58.5259ZM58.2197 43.2715V28.6214L39.7095 36.659C39.2725 36.8554 38.8054 36.9612 38.3382 36.9612C37.8711 36.9612 37.4039 36.8554 36.9669 36.659L18.4568 28.6113V43.2715C26.4937 43.4276 33.0137 45.8651 38.3382 50.7249C43.6627 45.8651 50.1827 43.4276 58.2197 43.2715ZM44.1098 84.4568C50.1526 83.0618 55.3816 79.5517 58.9782 74.7422C56.0347 74.0119 53.282 73.4529 50.6499 73.0349C49.1731 78.0962 46.8876 82.105 44.1098 84.4568ZM39.1068 58.5208H50.8156C50.7453 54.22 50.1526 50.0551 49.0877 46.3687C45.3254 47.5673 42.0151 49.5313 39.1068 52.2811V58.5158V58.5208ZM50.8156 60.1878H39.1068V70.4615C42.4672 70.4413 45.8428 70.6579 49.4242 71.1615C50.2681 67.8628 50.7554 64.1361 50.8156 60.1878ZM39.1068 85.0713C43.286 84.5072 46.9177 79.7279 48.9872 72.7881C45.5665 72.3299 42.3215 72.1234 39.1068 72.1435V85.0763V85.0713ZM37.4441 85.0713V72.1637C34.2494 72.2594 31.0396 72.5615 27.649 73.05C29.7387 79.8488 33.3252 84.5122 37.4441 85.0763V85.0713ZM37.4441 70.4866V60.1878H25.7352C25.7955 64.2368 26.3179 68.0592 27.1919 71.4334C30.7483 70.9147 34.1088 70.5924 37.4441 70.4866ZM37.4441 58.5259V52.1753C34.5307 49.4558 31.2356 47.5219 27.4833 46.3334C26.4033 50.04 25.8106 54.2149 25.7352 58.5259H37.4441ZM32.4411 84.4619C29.7186 82.1503 27.4582 78.2473 25.9814 73.3119C23.3493 73.7299 20.6066 74.2486 17.6631 74.863C21.2496 79.6121 26.4485 83.0769 32.4411 84.4619ZM24.0676 58.5259C24.1379 54.0588 24.7557 49.7378 25.8658 45.8852C23.3191 45.2507 20.5815 44.9283 17.6179 44.9283C17.3868 44.9283 17.1909 44.8327 17.0352 44.6866C14.2273 48.7457 12.645 53.5552 12.4792 58.5208H24.0626L24.0676 58.5259ZM25.5243 71.6953C24.6502 68.2305 24.1329 64.3325 24.0676 60.1928H12.4742C12.6299 65.0426 14.1268 69.555 16.6233 73.3723C19.7828 72.7176 22.7264 72.1435 25.5243 71.6953Z" fill="#370054"/>
</svg>
