<svg width="139" height="109" viewBox="0 0 139 109" fill="none" xmlns="http://www.w3.org/2000/svg">
<path fill-rule="evenodd" clip-rule="evenodd" d="M139 89.4348V104.107C139 106.784 136.855 108.939 134.187 108.939H5.10305C2.4447 108.939 0.290039 106.793 0.290039 104.107V89.4348C0.290039 86.7578 2.43537 84.6031 5.10305 84.6031H12.7516V9.97342C12.7516 4.57277 17.1729 0.170166 22.6109 0.170166H116.67C122.089 0.170166 126.529 4.57277 126.529 9.97342V84.6031H134.178C136.836 84.6031 138.991 86.7484 138.991 89.4348H139ZM135.362 104.107V89.4348C135.362 88.7818 134.831 88.2315 134.178 88.2315H5.10305C4.45012 88.2315 3.91845 88.7818 3.91845 89.4348V104.107C3.91845 104.76 4.45012 105.31 5.10305 105.31H134.178C134.831 105.31 135.362 104.76 135.362 104.107ZM122.901 84.6031V9.97342C122.901 6.57819 120.093 3.78925 116.679 3.78925H22.6109C19.169 3.78925 16.3894 6.55021 16.3894 9.97342V84.6031H122.891H122.901Z" fill="#660099"/>
<path fill-rule="evenodd" clip-rule="evenodd" d="M101.858 32.4994C103.313 33.1337 104.171 34.5048 104.171 36.0159C104.171 37.527 103.313 38.8795 101.877 39.5137L89.8815 44.6532V60.9577C89.8815 61.9558 89.0606 62.7766 88.0626 62.7766C81.0203 62.7766 75.4051 64.8194 70.9279 69.0354C70.5828 69.3805 70.1257 69.5298 69.678 69.5298C69.2303 69.5298 68.7732 69.3619 68.4281 69.0354C63.9415 64.8194 58.3357 62.7766 51.2934 62.7766C50.286 62.7766 49.4745 61.9558 49.4745 60.9577V44.6532L38.8318 40.092V48.1324C39.9138 48.5988 40.632 49.5222 40.632 50.6322C40.632 51.6115 40.063 52.4324 39.1769 52.9267C39.2142 52.992 39.2609 53.048 39.2982 53.1133L41.4248 57.7118C41.77 58.4113 41.6953 59.2042 41.2849 59.8571C40.8372 60.5567 40.035 60.9577 39.1583 60.9577H34.8583C33.9815 60.9577 33.1793 60.5473 32.7316 59.8571C32.3212 59.2042 32.2839 58.402 32.5917 57.7118L34.7183 53.1133C34.7183 53.1133 34.8023 52.992 34.8396 52.9267C33.9628 52.4324 33.3845 51.6209 33.3845 50.6322C33.3845 49.5315 34.1214 48.6081 35.2034 48.1324V36.0252C35.2034 34.5142 36.0615 33.143 37.498 32.5087L68.0643 19.4782C69.0904 19.0118 70.3123 19.0118 71.3569 19.4968L101.867 32.5087L101.858 32.4994ZM100.552 36.0159C100.552 36.0159 100.515 35.848 100.412 35.8107L69.9018 22.7988C69.9018 22.7988 69.734 22.7615 69.6966 22.7615C69.6314 22.7615 69.5754 22.7615 69.5287 22.7801L38.9437 35.8293C38.9437 35.8293 38.8225 35.9133 38.8225 36.0159C38.8225 36.1185 38.8598 36.1558 38.9904 36.2024L69.4728 49.233H69.5101C69.5101 49.233 69.7339 49.2703 69.8366 49.233L100.422 36.2024C100.422 36.2024 100.543 36.1185 100.543 36.0159H100.552ZM86.2624 59.1762V46.1829L71.3383 52.563C70.8066 52.7868 70.275 52.9081 69.6966 52.9081C69.1183 52.9081 68.5867 52.7868 68.055 52.563L53.1309 46.1829V59.1762C59.7068 59.4653 65.1448 61.4894 69.6966 65.2951C74.2392 61.5081 79.6864 59.484 86.2624 59.1762ZM37.2648 57.3387L37.0223 56.807L36.7797 57.3387H37.2741H37.2648Z" fill="#660099"/>
<path fill-rule="evenodd" clip-rule="evenodd" d="M72.0747 95.1899C73.0914 95.1899 73.9215 96.0107 73.9215 97.0274C73.9215 98.0441 73.0914 98.8649 72.0747 98.8649H67.1964C66.1797 98.8649 65.3682 98.0441 65.3682 97.0274C65.3682 96.0107 66.1797 95.1899 67.1964 95.1899H72.0747Z" fill="#660099"/>
</svg>
