<svg width="59" height="72" viewBox="0 0 59 72" fill="none" xmlns="http://www.w3.org/2000/svg">
<path fill-rule="evenodd" clip-rule="evenodd" d="M58.534 7.78159V30.424C58.534 34.6153 55.0957 38.0161 50.892 38.0161H34.5991L21.8952 47.573C21.6401 47.7532 21.3561 47.8404 21.0835 47.8404C20.8284 47.8404 20.5907 47.7822 20.3646 47.6427C19.9007 47.3404 19.6572 46.7766 19.7789 46.2359L21.6111 38.0277H19.3151C15.1114 38.0277 11.6904 34.6153 11.6904 30.4356V7.79322C11.6904 3.6019 15.1288 0.201172 19.3151 0.201172H50.892C55.1131 0.201172 58.534 3.61352 58.534 7.79322V7.77578V7.78159ZM55.8611 30.424V7.78159C55.8611 5.0552 53.623 2.84037 50.8746 2.84037H19.2977C16.5667 2.84037 14.3286 5.0552 14.3286 7.78159V30.424C14.3286 33.1504 16.5667 35.3652 19.2977 35.3652H23.2637C23.6695 35.3652 24.0464 35.5455 24.3015 35.8594C24.5566 36.1733 24.6494 36.5802 24.5741 36.9697L23.1767 43.2886L33.3409 35.621C33.5786 35.4408 33.8511 35.3536 34.1526 35.3536H50.8804C53.6288 35.3536 55.8669 33.1388 55.8669 30.4124V30.4298L55.8611 30.424Z" fill="#370054"/>
<path fill-rule="evenodd" clip-rule="evenodd" d="M45.1633 13.1763C45.9112 13.1763 46.4911 13.7808 46.4911 14.5191C46.4911 15.2574 45.9112 15.862 45.1633 15.862H21.9416C21.1936 15.862 20.6138 15.2748 20.6138 14.5191C20.6138 13.7634 21.1936 13.1763 21.9416 13.1763H45.1633Z" fill="#370054"/>
<path fill-rule="evenodd" clip-rule="evenodd" d="M45.1633 21.0066C45.9112 21.0066 46.4911 21.5937 46.4911 22.3494C46.4911 23.1052 45.9112 23.6923 45.1633 23.6923H21.9416C21.1936 23.6923 20.6138 23.0877 20.6138 22.3494C20.6138 21.6112 21.1936 21.0066 21.9416 21.0066H45.1633Z" fill="#370054"/>
<path fill-rule="evenodd" clip-rule="evenodd" d="M39.1156 40.3704V64.3673C39.1156 68.5819 35.6715 72 31.4562 72H7.73579C3.50891 72 0.09375 68.5703 0.09375 64.3673V15.6701C0.09375 11.4555 3.52631 8.03735 7.73579 8.03735H9.42309V10.7172H7.73579C4.99905 10.7172 2.75517 12.9437 2.75517 15.6875V18.5767H9.41728V21.2566H2.75517V58.7866H36.4542V40.4053H39.133L39.1156 40.3762V40.3704ZM36.4368 64.3673V61.4316H2.73776V64.3673C2.73776 67.1053 4.98164 69.3376 7.71838 69.3376H31.4388C34.1929 69.3376 36.431 67.1111 36.431 64.3673H36.4368Z" fill="#370054"/>
<path fill-rule="evenodd" clip-rule="evenodd" d="M21.1006 63.722C21.8138 63.722 22.3995 64.3092 22.3995 65.0649C22.3995 65.8206 21.8138 66.4077 21.1006 66.4077H18.7929C18.0798 66.4077 17.4941 65.8032 17.4941 65.0649C17.4941 64.3266 18.0798 63.722 18.7929 63.722H21.1006Z" fill="#370054"/>
</svg>
