<svg width="79" height="83" viewBox="0 0 79 83" fill="none" xmlns="http://www.w3.org/2000/svg">
<path fill-rule="evenodd" clip-rule="evenodd" d="M77.504 2.59864C78.0968 2.63893 78.6091 2.19072 78.6493 1.59646C78.6895 1.00219 78.2475 0.488511 77.6497 0.448222C77.5995 0.448222 77.5543 0.448222 77.504 0.448222L1.26834 0C0.675617 0 0.198419 0.478434 0.198419 1.0727C0.198419 1.66696 0.675617 2.14539 1.26834 2.14539H4.54336L4.28221 47.0222H1.0021C0.409377 47.0625 -0.0376747 47.5762 0.00251018 48.1705C0.037672 48.7043 0.464631 49.1324 1.0021 49.1727H5.35214L33.0696 49.3338L25.2084 78.4275C25.0578 79.0016 25.3943 79.5908 25.9669 79.7469C26.1327 79.7822 26.3035 79.7822 26.4693 79.7469C26.8661 79.6664 27.1876 79.3642 27.2931 78.9714L35.2999 49.3338H38.0626L37.8718 81.2326C37.8667 81.8269 38.3439 82.3053 38.9366 82.3103C39.012 82.3204 39.0823 82.3204 39.1576 82.3103C39.6549 82.2146 40.0166 81.7765 40.0166 81.2628L40.2025 49.3691H42.9652L50.5902 79.1728C50.7309 79.7268 51.2834 80.0693 51.841 79.9585H51.8962C52.4739 79.8074 52.8155 79.2232 52.6698 78.6491L45.1553 49.4648L77.2228 49.6561C77.2981 49.6612 77.3684 49.6612 77.4438 49.6561C78.0214 49.5302 78.3931 48.9561 78.2625 48.3719C78.1571 47.8885 77.7352 47.5359 77.2379 47.5259H73.9578L74.224 2.65404L77.4991 2.60368L77.504 2.59864ZM71.8229 47.4403L6.42703 47.0525L6.68824 2.18065L72.0842 2.56338L71.8229 47.4403Z" fill="#370054"/>
<path fill-rule="evenodd" clip-rule="evenodd" d="M41.1319 27.19L47.461 21.7561L53.0969 26.5253C53.3481 26.7368 53.6797 26.8224 54.0011 26.7569C54.2272 26.7116 54.4281 26.5958 54.5838 26.4245L63.0025 17.0422L62.5957 21.5093C62.5454 22.0985 62.9774 22.6172 63.5651 22.6726C63.6656 22.6877 63.7711 22.6877 63.8716 22.6726C64.3337 22.582 64.6802 22.1942 64.7204 21.7208L65.4036 14.2422C65.4588 13.658 65.0369 13.1393 64.4542 13.0839C64.3889 13.0788 64.3236 13.0788 64.2583 13.0839L56.7789 13.6781C56.1862 13.6932 55.719 14.1868 55.7341 14.776C55.7491 15.3652 56.2414 15.8336 56.8342 15.8185C56.8744 15.8185 56.9095 15.8185 56.9497 15.8084L61.591 15.4357L53.6847 24.2439L48.1592 19.5553C47.7574 19.2128 47.1747 19.2128 46.7729 19.5553L39.7405 25.5885C39.2734 25.9511 39.188 26.626 39.5547 27.0893C39.9163 27.5577 40.5894 27.6382 41.0566 27.2756C41.0817 27.2555 41.1068 27.2303 41.1319 27.2102V27.19Z" fill="#370054"/>
<path fill-rule="evenodd" clip-rule="evenodd" d="M11.4202 17.1581L34.6019 17.3041C34.6722 17.3142 34.7475 17.3142 34.8178 17.3041C35.4005 17.1883 35.7773 16.6142 35.6618 16.0199C35.5613 15.5062 35.1193 15.1386 34.6119 15.1386L11.4303 14.9976C10.8375 14.9976 10.3604 15.4861 10.3604 16.0904C10.3604 16.6947 10.8375 17.1832 11.4303 17.1832L11.4202 17.1581Z" fill="#370054"/>
<path fill-rule="evenodd" clip-rule="evenodd" d="M11.3546 24.6619L34.6116 24.8029C34.687 24.813 34.7573 24.813 34.8326 24.8029C35.4153 24.672 35.787 24.0878 35.6514 23.4986C35.5459 23.005 35.1189 22.6475 34.6166 22.6374L11.3596 22.4964C10.7669 22.5367 10.3148 23.0604 10.355 23.6648C10.3902 24.2087 10.8222 24.6418 11.3596 24.682L11.3496 24.6619H11.3546Z" fill="#370054"/>
<path fill-rule="evenodd" clip-rule="evenodd" d="M25.9722 29.8994L11.3248 29.8088C10.727 29.7685 10.2097 30.2268 10.1695 30.8412C10.1293 31.4506 10.5764 31.9794 11.1792 32.0247C11.2294 32.0247 11.2745 32.0247 11.3248 32.0247L25.9772 32.1154C26.0475 32.1204 26.1229 32.1204 26.1983 32.1154C26.786 31.9844 27.1526 31.3901 27.022 30.7959C26.9165 30.2973 26.4896 29.9347 25.9873 29.9246L25.9722 29.9045V29.8994Z" fill="#370054"/>
</svg>
